<svg width="134" height="38" viewBox="0 0 134 38" fill="none" xmlns="http://www.w3.org/2000/svg">
<rect x="0.5" y="0.5" width="133" height="37" rx="6.5" stroke="black"/>
<path d="M60.6514 21.4023H56.4814L55.5449 24H54.1914L57.9922 14.0469H59.1406L62.9482 24H61.6016L60.6514 21.4023ZM56.8779 20.3223H60.2617L58.5664 15.667L56.8779 20.3223ZM70.3379 20.3838C70.3379 21.5094 70.0804 22.4163 69.5654 23.1045C69.0505 23.7926 68.3532 24.1367 67.4736 24.1367C66.5758 24.1367 65.8695 23.8519 65.3545 23.2822V26.8438H64.0898V16.6035H65.2451L65.3066 17.4238C65.8216 16.7858 66.5371 16.4668 67.4531 16.4668C68.3418 16.4668 69.0436 16.8018 69.5586 17.4717C70.0781 18.1416 70.3379 19.0736 70.3379 20.2676V20.3838ZM69.0732 20.2402C69.0732 19.4062 68.8955 18.7477 68.54 18.2646C68.1846 17.7816 67.6969 17.54 67.0771 17.54C66.3115 17.54 65.7373 17.8796 65.3545 18.5586V22.0928C65.7327 22.7673 66.3115 23.1045 67.0908 23.1045C67.6969 23.1045 68.1777 22.8652 68.5332 22.3867C68.8932 21.9036 69.0732 21.1882 69.0732 20.2402ZM78.1992 20.3838C78.1992 21.5094 77.9417 22.4163 77.4268 23.1045C76.9118 23.7926 76.2145 24.1367 75.335 24.1367C74.4372 24.1367 73.7308 23.8519 73.2158 23.2822V26.8438H71.9512V16.6035H73.1064L73.168 17.4238C73.6829 16.7858 74.3984 16.4668 75.3145 16.4668C76.2031 16.4668 76.9049 16.8018 77.4199 17.4717C77.9395 18.1416 78.1992 19.0736 78.1992 20.2676V20.3838ZM76.9346 20.2402C76.9346 19.4062 76.7568 18.7477 76.4014 18.2646C76.0459 17.7816 75.5583 17.54 74.9385 17.54C74.1729 17.54 73.5986 17.8796 73.2158 18.5586V22.0928C73.5941 22.7673 74.1729 23.1045 74.9521 23.1045C75.5583 23.1045 76.0391 22.8652 76.3945 22.3867C76.7546 21.9036 76.9346 21.1882 76.9346 20.2402ZM86.416 19.5635C85.2904 19.2399 84.4701 18.8434 83.9551 18.374C83.4447 17.9001 83.1895 17.3167 83.1895 16.624C83.1895 15.8402 83.5016 15.193 84.126 14.6826C84.7549 14.1676 85.5706 13.9102 86.5732 13.9102C87.2568 13.9102 87.8652 14.0423 88.3984 14.3066C88.9362 14.571 89.3509 14.9355 89.6426 15.4004C89.9388 15.8652 90.0869 16.3734 90.0869 16.9248H88.7676C88.7676 16.3232 88.5762 15.8516 88.1934 15.5098C87.8105 15.1634 87.2705 14.9902 86.5732 14.9902C85.9261 14.9902 85.4202 15.1338 85.0557 15.4209C84.6956 15.7035 84.5156 16.0977 84.5156 16.6035C84.5156 17.0091 84.6865 17.3532 85.0283 17.6357C85.3747 17.9137 85.9603 18.1689 86.7852 18.4014C87.6146 18.6338 88.2617 18.8913 88.7266 19.1738C89.196 19.4518 89.5423 19.7777 89.7656 20.1514C89.9935 20.5251 90.1074 20.9648 90.1074 21.4707C90.1074 22.2773 89.793 22.9245 89.1641 23.4121C88.5352 23.8952 87.6943 24.1367 86.6416 24.1367C85.958 24.1367 85.32 24.0068 84.7275 23.7471C84.1351 23.4827 83.6771 23.1227 83.3535 22.667C83.0345 22.2113 82.875 21.694 82.875 21.1152H84.1943C84.1943 21.7168 84.4154 22.193 84.8574 22.5439C85.304 22.8903 85.8988 23.0635 86.6416 23.0635C87.3343 23.0635 87.8652 22.9222 88.2344 22.6396C88.6035 22.3571 88.7881 21.972 88.7881 21.4844C88.7881 20.9967 88.6172 20.6208 88.2754 20.3564C87.9336 20.0876 87.3138 19.8232 86.416 19.5635ZM93.3135 14.8125V16.6035H94.6943V17.5811H93.3135V22.168C93.3135 22.4642 93.375 22.6875 93.498 22.8379C93.6211 22.9837 93.8307 23.0566 94.127 23.0566C94.2728 23.0566 94.4733 23.0293 94.7285 22.9746V24C94.3958 24.0911 94.0723 24.1367 93.7578 24.1367C93.1927 24.1367 92.7666 23.9658 92.4795 23.624C92.1924 23.2822 92.0488 22.7969 92.0488 22.168V17.5811H90.7021V16.6035H92.0488V14.8125H93.3135ZM95.7061 20.2334C95.7061 19.5088 95.8473 18.8571 96.1299 18.2783C96.417 17.6995 96.8135 17.2529 97.3193 16.9385C97.8298 16.624 98.4108 16.4668 99.0625 16.4668C100.07 16.4668 100.883 16.8154 101.503 17.5127C102.127 18.21 102.439 19.1374 102.439 20.2949V20.3838C102.439 21.1038 102.3 21.751 102.022 22.3252C101.749 22.8949 101.355 23.3392 100.84 23.6582C100.329 23.9772 99.7415 24.1367 99.0762 24.1367C98.0736 24.1367 97.2601 23.7881 96.6357 23.0908C96.016 22.3936 95.7061 21.4707 95.7061 20.3223V20.2334ZM96.9775 20.3838C96.9775 21.2041 97.1667 21.8626 97.5449 22.3594C97.9277 22.8561 98.4382 23.1045 99.0762 23.1045C99.7188 23.1045 100.229 22.8538 100.607 22.3525C100.986 21.8467 101.175 21.1403 101.175 20.2334C101.175 19.4222 100.981 18.766 100.594 18.2646C100.211 17.7588 99.7005 17.5059 99.0625 17.5059C98.4382 17.5059 97.9346 17.7542 97.5518 18.251C97.1689 18.7477 96.9775 19.4587 96.9775 20.3838ZM107.601 17.7383C107.409 17.7064 107.202 17.6904 106.979 17.6904C106.149 17.6904 105.586 18.0436 105.29 18.75V24H104.025V16.6035H105.256L105.276 17.458C105.691 16.7972 106.279 16.4668 107.04 16.4668C107.286 16.4668 107.473 16.4987 107.601 16.5625V17.7383ZM111.702 24.1367C110.7 24.1367 109.884 23.8086 109.255 23.1523C108.626 22.4915 108.312 21.6097 108.312 20.5068V20.2744C108.312 19.5407 108.451 18.8867 108.729 18.3125C109.011 17.7337 109.403 17.2826 109.904 16.959C110.41 16.6309 110.957 16.4668 111.545 16.4668C112.507 16.4668 113.254 16.7835 113.787 17.417C114.32 18.0505 114.587 18.9574 114.587 20.1377V20.6641H109.576C109.594 21.3932 109.806 21.9834 110.212 22.4346C110.622 22.8812 111.142 23.1045 111.771 23.1045C112.217 23.1045 112.595 23.0133 112.905 22.8311C113.215 22.6488 113.486 22.4072 113.719 22.1064L114.491 22.708C113.871 23.6605 112.942 24.1367 111.702 24.1367ZM111.545 17.5059C111.035 17.5059 110.606 17.6927 110.26 18.0664C109.913 18.4355 109.699 18.9551 109.617 19.625H113.322V19.5293C113.286 18.8867 113.113 18.39 112.803 18.0391C112.493 17.6836 112.074 17.5059 111.545 17.5059Z" fill="black"/>
<path d="M36.4755 18.9187C36.4755 16.5849 38.3509 15.418 38.4951 15.3451C37.4132 13.7406 35.6821 13.5218 35.1051 13.5218C33.6625 13.376 32.2921 14.397 31.5708 14.397C30.8496 14.397 29.6955 13.5218 28.5415 13.5948C27.0268 13.5948 25.5842 14.5429 24.7908 15.9285C23.1319 18.7728 24.3581 23.0028 25.9449 25.3366C26.7383 26.5034 27.6759 27.7433 28.83 27.6703C29.984 27.5974 30.4168 26.941 31.8594 26.941C33.2298 26.941 33.6625 27.6703 34.8887 27.6703C36.1149 27.6703 36.9083 26.5034 37.7017 25.4095C38.6394 24.0967 39 22.8569 39 22.784C38.9279 22.6381 36.5477 21.69 36.4755 18.9187Z" fill="black"/>
<path d="M34.1678 11.9901C34.8169 11.1879 35.2497 10.094 35.1055 9C34.1678 9.07293 33.0858 9.65637 32.3645 10.3857C31.7874 11.0421 31.2825 12.2089 31.4268 13.23C32.5087 13.3758 33.5186 12.7924 34.1678 11.9901Z" fill="black"/>
</svg>
