<svg width="456" height="72" viewBox="0 0 456 72" fill="none" xmlns="http://www.w3.org/2000/svg">
<path d="M267.42 60.0318H281.056V13.0651H308.155V1.32349H267.42V60.0318Z" fill="#39D671"/>
<path d="M314.547 1.32349V60.0318H330.685L370.729 19.0223H371.075V60.0318H385.918V1.32349H369.78L329.736 42.333H329.391V1.32349H314.547Z" fill="#39D671"/>
<path d="M404.85 71.9461V60.0318H442.046V71.9461H455.509V48.2901H447.914V1.32349H403.641L403.037 28.2602C402.865 35.8578 401.311 42.592 397.428 48.2901H391.386V71.9461H404.85ZM415.724 29.9869L416.155 13.0651H434.279V48.2901H411.322C414.257 43.0237 415.551 37.0665 415.724 29.9869Z" fill="#39D671"/>
<path d="M35.6427 61.4711C56.01 61.4711 67.3156 55.7729 72.6663 45.2399L59.2032 38.7648C55.147 45.9306 48.3291 49.0387 36.5057 49.0387C23.7331 49.0387 15.3618 43.5132 15.3618 31.0809V30.3902C15.3618 17.9578 24.0783 12.4323 38.0592 12.4323C49.6237 12.4323 55.8374 15.6268 59.8936 22.7063L73.3567 16.2311C68.006 5.87083 57.5634 0 38.0592 0C14.1535 0 0 11.4827 0 29.6995V31.7716C0 49.9884 12.4275 61.4711 35.6427 61.4711Z" fill="#51008D"/>
<path d="M79.4275 1.38137V60.0897H94.6167L112.481 19.4255H112.826L111.877 60.0897H124.65V1.38137H109.461L91.6824 42.0455H91.3372L92.2002 1.38137H79.4275Z" fill="#51008D"/>
<path d="M148.652 60.0897H162.288V13.123H180.756V1.38137H130.183V13.123H148.652V60.0897Z" fill="#51008D"/>
<path d="M187.157 1.38137V60.0897H203.295L243.339 19.0802H243.685V60.0897H258.528V1.38137H242.39L202.346 42.3909H202.001V1.38137H187.157Z" fill="#51008D"/>
</svg>
