<svg width="176" height="26" viewBox="0 0 176 26" fill="none" xmlns="http://www.w3.org/2000/svg">
<path d="M160.05 18.1598V14.696H169.305C170.585 14.696 171.397 15.1413 171.397 16.4032C171.397 17.6649 170.659 18.1598 169.305 18.1598H160.05ZM160.05 11.1086V7.64489H168.961C170.314 7.64489 171.053 8.21394 171.053 9.35205C171.053 10.5395 170.314 11.1086 168.961 11.1086H160.05ZM155.645 4.05746V21.7719H169.256C173.12 21.7719 176 20.238 176 16.7743C176 14.9929 175.016 13.4837 173.465 12.7663C174.745 12.024 175.582 10.6633 175.582 9.05511C175.582 5.51713 172.628 4.05746 168.911 4.05746H155.645ZM137.824 0V2.94419L150.205 1.55869V0.0247262H137.824V0ZM140.039 4.05746H135.978V21.7719H140.63L147.916 9.72307H148.014L147.817 21.7719H151.928V4.05746H147.227L139.941 16.1558H139.842L140.039 4.05746ZM127.56 15.4135H123.77L125.566 8.0902H125.665L127.56 15.4135ZM123.253 4.05746L117.542 21.7719H122.071L122.859 18.9514H128.52L129.382 21.7719H133.91L128.2 4.05746H123.253ZM106.072 11.7766V7.62016H111.906C113.333 7.62016 114.022 8.41187 114.022 9.67362C114.022 10.9354 113.284 11.7766 111.906 11.7766H106.072ZM111.783 4.05746H101.814V21.7719H106.097V15.3392H111.807C115.672 15.3392 118.231 13.4095 118.231 9.67362C118.231 5.93783 115.598 4.05746 111.783 4.05746ZM99.5742 25.3592V18.0608H97.0881V4.05746H81.286L81.0152 12.222C80.9414 14.2754 80.4245 16.3784 79.2431 18.0608H77.1509V25.3592H81.5321V21.7719H95.1929V25.3592H99.5742ZM85.175 12.5684L85.3473 7.74391H92.756V18.0608H83.7474C84.6335 16.6011 85.1012 14.5724 85.175 12.5684Z" fill="#33D163"/>
<path d="M59.7436 3.6312H55.4183V21.2412H60.186L70.434 8.99294H70.5324L70.4585 21.2412H74.7839V3.6312H70.0162L59.7682 15.8795H59.6698L59.7436 3.6312ZM44.3346 7.09906V21.2412H48.3896V7.09906H53.1081V3.6312H39.616V7.09906H44.3346ZM27.0824 3.6312H23.1504V21.2412H27.746L33.5705 9.3373H33.6688L33.3984 21.2167H37.3306V3.6312H32.7595L26.9105 15.5353H26.8121L27.0824 3.6312ZM20.8157 16.8141L16.7115 15.0433C15.4336 17.3799 13.3446 17.8471 10.8134 17.8471C6.66008 17.8471 4.52196 16.0025 4.52196 12.5347V12.2886C4.52196 8.82076 6.63551 6.97615 10.8134 6.97615C13.3446 6.97615 15.4336 7.468 16.7115 9.77998L20.8157 8.00913C18.8742 4.02472 14.942 3.23767 10.8134 3.23767C4.15331 3.23767 0 6.68095 0 12.0919V12.756C0 18.2161 4.15331 21.6102 10.838 21.6102C14.942 21.6102 18.8742 20.7986 20.8157 16.8141Z" fill="#5F00A5"/>
</svg>
