<svg width="24" height="24" viewBox="0 0 24 24" fill="none" xmlns="http://www.w3.org/2000/svg">
<path d="M12 3C7.03125 3 3 7.05575 3 12.0547C3 16.5745 6.2925 20.3209 10.5937 21V14.6693L8.31 14.6693L8.31 12.0509L10.5938 12.0509V10.0551C10.5938 7.7839 11.9362 6.53134 13.995 6.53134C14.9812 6.53134 16.0088 6.70866 16.0088 6.70866V8.93838H14.8725C13.755 8.93838 13.4062 9.63634 13.4062 10.3532V12.0509H15.9038L15.5062 14.6693H13.41V20.9962C17.7075 20.3171 21 16.5707 21 12.0547C21 7.05198 16.9688 3 12 3Z"/>
</svg>
