<svg width="134" height="38" viewBox="0 0 134 38" fill="none" xmlns="http://www.w3.org/2000/svg">
<rect x="0.5" y="0.5" width="133" height="37" rx="6.5" stroke="black"/>
<path d="M50.5039 22.6943C50.1667 23.1774 49.695 23.5397 49.0889 23.7812C48.4873 24.0182 47.7855 24.1367 46.9834 24.1367C46.1722 24.1367 45.4521 23.9476 44.8232 23.5693C44.1943 23.1865 43.7067 22.6442 43.3604 21.9424C43.0186 21.2406 42.8431 20.4271 42.834 19.502V18.6338C42.834 17.1344 43.1826 15.9723 43.8799 15.1475C44.5817 14.3226 45.5661 13.9102 46.833 13.9102C47.8721 13.9102 48.7083 14.1768 49.3418 14.71C49.9753 15.2386 50.3626 15.9906 50.5039 16.9658H49.1914C48.9453 15.6488 48.1615 14.9902 46.8398 14.9902C45.9603 14.9902 45.2926 15.3001 44.8369 15.9199C44.3857 16.5352 44.1579 17.4284 44.1533 18.5996V19.4131C44.1533 20.5296 44.4085 21.4183 44.9189 22.0791C45.4294 22.7354 46.1198 23.0635 46.9902 23.0635C47.4824 23.0635 47.9131 23.0088 48.2822 22.8994C48.6514 22.79 48.9567 22.6055 49.1982 22.3457V20.1104H46.8945V19.0439H50.5039V22.6943ZM52.165 20.2334C52.165 19.5088 52.3063 18.8571 52.5889 18.2783C52.876 17.6995 53.2725 17.2529 53.7783 16.9385C54.2887 16.624 54.8698 16.4668 55.5215 16.4668C56.5286 16.4668 57.3421 16.8154 57.9619 17.5127C58.5863 18.21 58.8984 19.1374 58.8984 20.2949V20.3838C58.8984 21.1038 58.7594 21.751 58.4814 22.3252C58.208 22.8949 57.8138 23.3392 57.2988 23.6582C56.7884 23.9772 56.2005 24.1367 55.5352 24.1367C54.5326 24.1367 53.7191 23.7881 53.0947 23.0908C52.4749 22.3936 52.165 21.4707 52.165 20.3223V20.2334ZM53.4365 20.3838C53.4365 21.2041 53.6257 21.8626 54.0039 22.3594C54.3867 22.8561 54.8971 23.1045 55.5352 23.1045C56.1777 23.1045 56.6882 22.8538 57.0664 22.3525C57.4447 21.8467 57.6338 21.1403 57.6338 20.2334C57.6338 19.4222 57.4401 18.766 57.0527 18.2646C56.6699 17.7588 56.1595 17.5059 55.5215 17.5059C54.8971 17.5059 54.3936 17.7542 54.0107 18.251C53.6279 18.7477 53.4365 19.4587 53.4365 20.3838ZM60.1494 20.2334C60.1494 19.5088 60.2907 18.8571 60.5732 18.2783C60.8604 17.6995 61.2568 17.2529 61.7627 16.9385C62.2731 16.624 62.8542 16.4668 63.5059 16.4668C64.513 16.4668 65.3265 16.8154 65.9463 17.5127C66.5706 18.21 66.8828 19.1374 66.8828 20.2949V20.3838C66.8828 21.1038 66.7438 21.751 66.4658 22.3252C66.1924 22.8949 65.7982 23.3392 65.2832 23.6582C64.7728 23.9772 64.1849 24.1367 63.5195 24.1367C62.5169 24.1367 61.7035 23.7881 61.0791 23.0908C60.4593 22.3936 60.1494 21.4707 60.1494 20.3223V20.2334ZM61.4209 20.3838C61.4209 21.2041 61.61 21.8626 61.9883 22.3594C62.3711 22.8561 62.8815 23.1045 63.5195 23.1045C64.1621 23.1045 64.6725 22.8538 65.0508 22.3525C65.429 21.8467 65.6182 21.1403 65.6182 20.2334C65.6182 19.4222 65.4245 18.766 65.0371 18.2646C64.6543 17.7588 64.1439 17.5059 63.5059 17.5059C62.8815 17.5059 62.3779 17.7542 61.9951 18.251C61.6123 18.7477 61.4209 19.4587 61.4209 20.3838ZM68.168 20.2402C68.168 19.0872 68.4346 18.1712 68.9678 17.4922C69.501 16.8086 70.2074 16.4668 71.0869 16.4668C71.9893 16.4668 72.6934 16.7858 73.1992 17.4238L73.2607 16.6035H74.416V23.8223C74.416 24.7793 74.1312 25.5335 73.5615 26.085C72.9964 26.6364 72.2354 26.9121 71.2783 26.9121C70.7451 26.9121 70.2233 26.7982 69.7129 26.5703C69.2025 26.3424 68.8128 26.0303 68.5439 25.6338L69.2002 24.875C69.7425 25.5449 70.4056 25.8799 71.1895 25.8799C71.8047 25.8799 72.2832 25.7067 72.625 25.3604C72.9714 25.014 73.1445 24.5264 73.1445 23.8975V23.2617C72.6387 23.8451 71.9482 24.1367 71.0732 24.1367C70.2074 24.1367 69.5055 23.7881 68.9678 23.0908C68.4346 22.3936 68.168 21.4434 68.168 20.2402ZM69.4395 20.3838C69.4395 21.2178 69.6104 21.874 69.9521 22.3525C70.2939 22.8265 70.7725 23.0635 71.3877 23.0635C72.1852 23.0635 72.7708 22.7012 73.1445 21.9766V18.5996C72.7572 17.8932 72.1761 17.54 71.4014 17.54C70.7861 17.54 70.3053 17.7793 69.959 18.2578C69.6126 18.7363 69.4395 19.445 69.4395 20.3838ZM77.7041 24H76.4395V13.5H77.7041V24ZM82.8037 24.1367C81.8011 24.1367 80.9854 23.8086 80.3564 23.1523C79.7275 22.4915 79.4131 21.6097 79.4131 20.5068V20.2744C79.4131 19.5407 79.5521 18.8867 79.8301 18.3125C80.1126 17.7337 80.5046 17.2826 81.0059 16.959C81.5117 16.6309 82.0586 16.4668 82.6465 16.4668C83.6081 16.4668 84.3555 16.7835 84.8887 17.417C85.4219 18.0505 85.6885 18.9574 85.6885 20.1377V20.6641H80.6777C80.696 21.3932 80.9079 21.9834 81.3135 22.4346C81.7236 22.8812 82.2432 23.1045 82.8721 23.1045C83.3187 23.1045 83.6969 23.0133 84.0068 22.8311C84.3167 22.6488 84.5879 22.4072 84.8203 22.1064L85.5928 22.708C84.973 23.6605 84.0433 24.1367 82.8037 24.1367ZM82.6465 17.5059C82.1361 17.5059 81.7077 17.6927 81.3613 18.0664C81.015 18.4355 80.8008 18.9551 80.7188 19.625H84.4238V19.5293C84.3874 18.8867 84.2142 18.39 83.9043 18.0391C83.5944 17.6836 83.1751 17.5059 82.6465 17.5059ZM92.1416 20.1035V24H90.8291V14.0469H94.5C95.5892 14.0469 96.4414 14.3249 97.0566 14.8809C97.6764 15.4368 97.9863 16.1729 97.9863 17.0889C97.9863 18.055 97.6833 18.8001 97.0771 19.3242C96.4756 19.8438 95.612 20.1035 94.4863 20.1035H92.1416ZM92.1416 19.0303H94.5C95.2018 19.0303 95.7396 18.8662 96.1133 18.5381C96.487 18.2054 96.6738 17.7269 96.6738 17.1025C96.6738 16.5101 96.487 16.0361 96.1133 15.6807C95.7396 15.3252 95.2269 15.1406 94.5752 15.127H92.1416V19.0303ZM100.837 24H99.5723V13.5H100.837V24ZM107.434 24C107.361 23.8542 107.301 23.5944 107.256 23.2207C106.668 23.8314 105.966 24.1367 105.15 24.1367C104.421 24.1367 103.822 23.9316 103.353 23.5215C102.888 23.1068 102.655 22.5827 102.655 21.9492C102.655 21.179 102.947 20.582 103.53 20.1582C104.118 19.7298 104.943 19.5156 106.005 19.5156H107.235V18.9346C107.235 18.4925 107.103 18.1416 106.839 17.8818C106.575 17.6175 106.185 17.4854 105.67 17.4854C105.219 17.4854 104.84 17.5993 104.535 17.8271C104.23 18.055 104.077 18.3307 104.077 18.6543H102.806C102.806 18.2852 102.936 17.9297 103.195 17.5879C103.46 17.2415 103.815 16.9681 104.262 16.7676C104.713 16.5671 105.207 16.4668 105.745 16.4668C106.597 16.4668 107.265 16.681 107.748 17.1094C108.231 17.5332 108.482 18.1188 108.5 18.8662V22.2705C108.5 22.9495 108.587 23.4896 108.76 23.8906V24H107.434ZM105.335 23.0361C105.731 23.0361 106.107 22.9336 106.463 22.7285C106.818 22.5234 107.076 22.2568 107.235 21.9287V20.4111H106.244C104.695 20.4111 103.92 20.8646 103.92 21.7715C103.92 22.168 104.052 22.4779 104.316 22.7012C104.581 22.9245 104.92 23.0361 105.335 23.0361ZM112.793 22.1475L114.516 16.6035H115.869L112.896 25.1416C112.435 26.3721 111.704 26.9873 110.701 26.9873L110.462 26.9668L109.99 26.8779V25.8525L110.332 25.8799C110.76 25.8799 111.093 25.7933 111.33 25.6201C111.572 25.4469 111.77 25.1302 111.925 24.6699L112.205 23.918L109.566 16.6035H110.947L112.793 22.1475Z" fill="black"/>
<path d="M35 17.2679C36.3333 18.0377 36.3333 19.9623 35 20.7321L26 25.9282C24.6667 26.698 23 25.7358 23 24.1962L23 13.8038C23 12.2642 24.6667 11.302 26 12.0718L35 17.2679Z" fill="black"/>
</svg>
