<svg width="32" height="32" viewBox="0 0 32 32" fill="none" xmlns="http://www.w3.org/2000/svg">
<path fill-rule="evenodd" clip-rule="evenodd" d="M16 4C12.74 4 12.335 4.015 11.055 4.07C9.77999 4.13 8.905 4.33 8.14 4.63C7.34 4.93 6.615 5.405 6.015 6.015C5.405 6.615 4.93 7.34 4.63 8.14C4.335 8.905 4.13001 9.775 4.07001 11.055C4.01501 12.335 4 12.74 4 16C4 19.26 4.01501 19.665 4.07001 20.945C4.13001 22.22 4.33 23.095 4.63 23.86C4.93 24.66 5.405 25.385 6.015 25.985C6.68 26.65 7.35 27.06 8.14 27.37C8.905 27.665 9.77499 27.87 11.055 27.93C12.335 27.99 12.745 28 16 28C19.255 28 19.665 27.985 20.945 27.93C22.22 27.87 23.095 27.67 23.86 27.37C24.66 27.07 25.385 26.595 25.985 25.985C26.65 25.32 27.06 24.65 27.37 23.86C27.665 23.095 27.87 22.225 27.93 20.945C27.99 19.665 28 19.255 28 16C28 12.745 27.985 12.335 27.93 11.055C27.87 9.78 27.67 8.905 27.37 8.14C27.07 7.34 26.595 6.615 25.985 6.015C25.385 5.405 24.66 4.93 23.86 4.63C23.095 4.335 22.225 4.13 20.945 4.07C19.665 4.015 19.26 4 16 4ZM16 6.16C19.205 6.16 19.585 6.175 20.85 6.23C22.02 6.285 22.655 6.48 23.08 6.645C23.64 6.86 24.04 7.125 24.46 7.54C24.88 7.96 25.14 8.36 25.355 8.92C25.52 9.345 25.715 9.98 25.77 11.15C25.825 12.415 25.84 12.795 25.84 16C25.84 19.205 25.825 19.585 25.77 20.85C25.715 22.02 25.52 22.655 25.355 23.08C25.165 23.6 24.855 24.075 24.46 24.46C24.04 24.88 23.64 25.14 23.08 25.355C22.655 25.52 22.02 25.715 20.85 25.77C19.585 25.825 19.205 25.84 16 25.84C12.795 25.84 12.415 25.825 11.15 25.77C9.97999 25.715 9.345 25.52 8.92 25.355C8.4 25.165 7.92499 24.855 7.53999 24.46C7.13999 24.075 6.835 23.6 6.645 23.08C6.48 22.655 6.285 22.02 6.23 20.85C6.175 19.585 6.16 19.205 6.16 16C6.16 12.795 6.175 12.415 6.23 11.15C6.285 9.98 6.48 9.345 6.645 8.92C6.86 8.36 7.12499 7.96 7.53999 7.54C7.95999 7.12 8.36 6.86 8.92 6.645C9.345 6.48 9.97999 6.285 11.15 6.23C12.415 6.175 12.795 6.16 16 6.16Z" fill="black"/>
<path fill-rule="evenodd" clip-rule="evenodd" d="M16.0001 20.005C13.7901 20.005 11.9951 18.215 11.9951 16C11.9951 13.79 13.7851 11.995 16.0001 11.995C18.2101 11.995 20.0051 13.79 20.0051 16C20.0051 18.21 18.2101 20.005 16.0001 20.005ZM16.0001 9.83001C12.5951 9.83001 9.83008 12.59 9.83008 15.995C9.83008 19.4 12.5901 22.165 15.9951 22.165H16.0001C19.4051 22.165 22.1701 19.405 22.1651 15.995C22.1651 12.595 19.4051 9.83001 16.0001 9.83001ZM23.9651 9.72001C23.9651 10.525 23.3101 11.18 22.5051 11.18C21.7001 11.18 21.0451 10.525 21.0451 9.72001C21.0451 8.91501 21.7001 8.26001 22.5051 8.26001C23.3101 8.26001 23.9651 8.91501 23.9651 9.72001Z" fill="black"/>
</svg>
