<svg width="105" height="145" viewBox="0 0 105 145" fill="none" xmlns="http://www.w3.org/2000/svg">
<path d="M66.981 60.7935C63.8428 64.1475 59.6541 66.058 55.1787 66.1748C50.7033 66.058 46.5147 64.1475 43.3764 60.7935C40.2217 57.4213 38.4864 52.9651 38.4864 48.2462C38.4864 43.5254 40.2236 39.0692 43.3764 35.6988C46.5147 32.3449 50.7033 30.4343 55.1787 30.3175C59.6541 30.4343 63.8428 32.3449 66.981 35.6988C70.1357 39.0711 71.8711 43.5272 71.8711 48.2462C71.8729 52.9651 70.1357 57.4213 66.981 60.7935ZM90.0303 15.7757C80.8749 6.05315 68.6579 0.586048 55.6281 0.378021L55.4765 0.374371C55.3815 0.372546 55.2865 0.368896 55.1915 0.368896H55.1641C55.0691 0.368896 54.9741 0.372546 54.8792 0.374371L54.7275 0.378021C41.6995 0.586048 29.4808 6.05315 20.3253 15.7757C11.1608 25.5092 6.11182 38.3977 6.11182 52.0673C6.11182 59.8099 8.24905 69.3792 12.4614 80.5086C15.9723 89.7804 20.9245 100.065 26.7809 110.249C31.9011 119.151 37.4689 127.554 42.4594 133.911C50.1645 143.725 53.0415 144.276 54.2088 144.307L54.6837 144.386H54.8627C54.9614 144.386 55.0637 144.384 55.1751 144.378C55.2883 144.384 55.3888 144.386 55.4874 144.386H55.6665L56.1414 144.307C57.3087 144.276 60.1839 143.727 67.8907 133.911C72.8813 127.556 78.449 119.152 83.5693 110.249C89.4257 100.067 94.3778 89.7822 97.8888 80.5086C102.103 69.3792 104.238 59.8117 104.238 52.0673C104.244 38.3977 99.1967 25.5092 90.0303 15.7757Z" fill="url(#paint0_linear_750:4784)"/>
<path d="M54.2909 30.1223C58.8504 30.2391 63.0993 32.1935 66.2686 35.5785C69.4543 38.9817 71.2336 43.5017 71.2336 48.3137C71.2336 53.1257 69.4543 57.6458 66.2686 61.049C63.0993 64.4359 58.8504 66.3884 54.2909 66.5052C49.7315 66.3884 45.4826 64.434 42.3133 61.049C39.1275 57.6458 37.3483 53.1257 37.3483 48.3137C37.3483 43.5017 39.1275 38.9817 42.3133 35.5785C45.4808 32.1916 49.7297 30.2391 54.2909 30.1223ZM54.7366 0.712005L54.6015 0.708355C54.5028 0.70653 54.4024 0.702881 54.3019 0.702881C54.2873 0.702881 54.2471 0.70288 54.2307 0.704705C54.1466 0.704705 54.0626 0.706529 53.9786 0.710179C53.9749 0.710179 53.8361 0.713829 53.8324 0.713829C41.2173 0.916382 29.3967 6.10976 20.455 15.3104C11.475 24.5402 6.36569 36.8193 5.91633 49.9378C5.65876 57.4943 7.45806 66.715 11.1224 77.4193C14.3155 86.7458 19.0631 97.2987 24.8701 107.733C29.8844 116.715 35.3791 125.271 40.4153 131.837C47.5979 141.2 50.5645 142.211 51.9436 142.702C51.9546 142.718 52.3893 142.804 52.4003 142.818C52.404 142.824 52.5684 142.829 52.572 142.837C52.667 142.847 52.7656 142.855 52.8734 142.86C52.9812 142.875 53.0798 142.888 53.1748 142.897C53.1785 142.902 53.3429 142.908 53.3484 142.915C53.3593 142.931 53.7941 142.875 53.805 142.891C55.376 143.619 58.2476 143.636 64.7269 135.857C64.8054 135.76 64.9351 135.671 65.0136 135.572C65.0758 135.508 65.1397 135.442 65.2018 135.377C65.2657 135.313 65.3278 135.247 65.3918 135.182C65.4703 135.083 65.6 134.973 65.6804 134.873C70.5467 129.224 76.9657 119.862 82.7691 109.649C89.0329 98.66 94.1842 87.2404 97.4594 77.4193C101.038 66.6858 102.923 57.4925 102.664 49.9342C102.214 36.8157 97.1032 24.5348 88.1214 15.3049C79.176 6.10429 67.3536 0.912733 54.7366 0.712005Z" fill="url(#paint1_linear_750:4784)"/>
<path d="M53.4013 29.9292C58.0466 30.0478 62.3558 32.0441 65.5562 35.462C68.773 38.8981 70.596 43.4801 70.596 48.3834C70.596 53.2866 68.773 57.8687 65.5562 61.3048C62.3558 64.7226 58.0466 66.719 53.4013 66.8376C48.756 66.719 44.4469 64.7226 41.2465 61.3048C38.0297 57.8687 36.2066 53.2866 36.2066 48.3834C36.2066 43.4801 38.0297 38.8981 41.2465 35.462C44.4469 32.0423 48.756 30.0478 53.4013 29.9292ZM53.8434 1.04441L53.7265 1.04258C53.6224 1.04076 53.5182 1.03711 53.4123 1.03711C53.3812 1.03711 53.3283 1.03893 53.299 1.03893C53.226 1.03893 53.1511 1.04076 53.078 1.04258C53.0707 1.04258 52.9447 1.04623 52.9355 1.04623C40.735 1.24514 29.3108 6.16297 20.5811 14.8435C11.7873 23.5716 6.60499 35.243 5.71905 47.8067C5.19844 55.1789 6.64883 64.062 9.77979 74.3284C12.6441 83.7188 17.1998 94.5289 22.9558 105.215C27.8659 114.275 33.2894 122.983 38.3676 129.76C45.0369 138.662 48.0856 140.145 49.6749 141.094C49.6986 141.125 50.0895 141.218 50.1133 141.249C50.1224 141.26 50.2704 141.273 50.2795 141.284C50.3708 141.304 50.4658 141.322 50.5681 141.339C50.6704 141.362 50.7654 141.386 50.8567 141.406C50.8659 141.417 51.0138 141.43 51.023 141.441C51.0467 141.472 51.4395 141.441 51.4614 141.472C53.4817 142.957 56.525 143.499 62.4343 136.693C62.5019 136.609 62.6736 136.539 62.7431 136.454C62.8106 136.397 62.8782 136.341 62.9477 136.282C63.0152 136.227 63.0847 136.171 63.1541 136.112C63.2217 136.027 63.3952 135.921 63.4646 135.833C68.2049 130.89 75.4751 120.571 81.9654 109.049C88.6347 97.2533 94.007 84.7188 97.0247 74.3284C100.019 64.0182 101.604 55.1753 101.084 47.7994C100.194 35.2339 95.0098 23.5606 86.2106 14.8326C77.4772 6.15385 66.0494 1.23784 53.8434 1.04441Z" fill="url(#paint2_linear_750:4784)"/>
<path d="M52.5115 29.7354C57.2408 29.854 61.6102 31.8923 64.8435 35.3448C68.0932 38.8138 69.9583 43.4597 69.9583 48.4542C69.9583 53.4487 68.0932 58.0946 64.8435 61.5636C61.6102 65.0143 57.2426 67.0544 52.5115 67.173C47.7821 67.0544 43.4127 65.0161 40.1794 61.5636C36.9297 58.0946 35.0647 53.4487 35.0647 48.4542C35.0647 43.4597 36.9297 38.8138 40.1794 35.3448C43.4127 31.8923 47.7821 29.854 52.5115 29.7354ZM52.9499 1.3762L52.8494 1.37437C52.7398 1.37255 52.6302 1.3689 52.5206 1.3689C52.4749 1.3689 52.4092 1.37072 52.3635 1.37255C52.2996 1.37255 52.2375 1.37437 52.1735 1.3762C52.1607 1.3762 52.0493 1.37802 52.0365 1.37985C40.2488 1.5751 29.2211 6.21739 20.705 14.3761C12.0958 22.6004 6.8349 33.6679 5.51785 45.675C4.73055 52.8647 5.81378 61.4176 8.43326 71.2387C10.9578 80.7002 15.3309 91.7604 21.0393 102.7C25.8453 111.84 31.203 120.694 36.3178 127.687C42.4847 136.119 45.6029 138.083 47.4059 139.49C47.4406 139.537 47.7913 139.638 47.826 139.683C47.8388 139.701 47.9721 139.718 47.9849 139.736C48.0726 139.767 48.1639 139.796 48.2607 139.822C48.3594 139.857 48.4489 139.888 48.5384 139.919C48.5512 139.937 48.6845 139.953 48.6973 139.972C48.732 140.019 49.0846 140.012 49.1193 140.057C51.589 142.3 54.804 143.368 60.1434 137.534C60.2019 137.461 60.4156 137.413 60.474 137.338C60.5471 137.291 60.6202 137.24 60.6932 137.191C60.7663 137.143 60.8412 137.096 60.9143 137.046C60.9727 136.972 61.1865 136.871 61.2467 136.796C65.861 132.559 73.9825 121.282 81.1577 108.45C88.2344 95.8479 93.8533 82.2167 96.5878 71.2387C99.0448 61.3738 100.291 52.8593 99.4996 45.6659C98.1789 33.6551 92.9125 22.5858 84.2978 14.3615C75.7763 6.20279 64.743 1.56415 52.9499 1.3762Z" fill="url(#paint3_linear_750:4784)"/>
<path d="M51.6241 29.542C56.4393 29.6606 60.8672 31.7427 64.1315 35.2263C67.4123 38.7281 69.3212 43.4361 69.3212 48.5218C69.3212 53.6075 67.4123 58.3173 64.1315 61.8173C60.8672 65.3008 56.4393 67.3829 51.6241 67.5015C46.809 67.3829 42.381 65.3008 39.1167 61.8173C35.836 58.3155 33.9271 53.6075 33.9271 48.5218C33.9271 43.4361 35.836 38.7262 39.1167 35.2263C42.3792 31.7427 46.809 29.6606 51.6241 29.542ZM52.0589 1.70834L51.9749 1.70652C51.8598 1.70469 51.7465 1.70104 51.6314 1.69922C51.5693 1.69922 51.4926 1.70104 51.4305 1.70287C51.3775 1.70287 51.3246 1.70469 51.2734 1.70652C51.257 1.70652 51.1565 1.70834 51.1419 1.70834C39.7689 1.89812 29.1375 6.26669 20.8333 13.9053C12.4104 21.6279 7.05636 32.0913 5.321 43.5419C4.25969 50.5491 4.96479 58.7808 7.0929 68.1457C9.26119 77.6857 13.4699 88.9904 19.1272 100.18C23.8273 109.399 29.1265 118.395 34.2723 125.61C39.9461 133.565 43.1245 136.015 45.1394 137.884C45.185 137.946 45.4956 138.054 45.5412 138.116C45.5595 138.14 45.6764 138.163 45.6928 138.185C45.7787 138.225 45.8646 138.265 45.9577 138.302C46.0509 138.346 46.1386 138.388 46.2226 138.428C46.2409 138.452 46.3578 138.475 46.3742 138.497C46.4217 138.559 46.7322 138.577 46.7779 138.64C49.6988 141.641 53.0837 143.233 57.8532 138.371C57.9025 138.311 58.1564 138.284 58.2057 138.222C58.2843 138.182 58.3628 138.14 58.4414 138.096C58.5199 138.057 58.5985 138.019 58.677 137.977C58.7263 137.915 58.9802 137.818 59.0314 137.754C63.5214 134.224 72.4923 121.988 80.3526 107.846C87.8348 94.4374 93.735 79.724 96.1535 68.1438C98.1172 58.7388 98.9849 50.5382 97.92 43.5273C96.1809 32.073 90.8196 21.6078 82.3875 13.8852C74.0779 6.25209 63.4392 1.889 52.0589 1.70834Z" fill="url(#paint4_linear_750:4784)"/>
<path d="M50.7344 29.3483C55.6336 29.4687 60.1236 31.5928 63.419 35.1092C66.7326 38.642 68.6817 43.4138 68.6817 48.5926C68.6817 53.7696 66.7308 58.5414 63.419 62.076C60.1236 65.5924 55.6355 67.7165 50.7344 67.8369C45.8352 67.7165 41.3452 65.5924 38.0498 62.076C34.7362 58.5432 32.7871 53.7714 32.7871 48.5926C32.7871 43.4156 34.738 38.6438 38.0498 35.1092C41.3452 31.5928 45.8352 29.4669 50.7344 29.3483ZM51.1655 2.04013L51.0979 2.03831C50.9792 2.03648 50.8605 2.03283 50.7399 2.03101C50.6632 2.03101 50.5737 2.03466 50.4969 2.03648C50.4549 2.03648 50.4129 2.03831 50.3709 2.03831C50.3508 2.03831 50.2631 2.04013 50.243 2.04013C39.2829 2.22626 29.0497 6.31929 20.9574 13.436C12.7208 20.6549 7.26268 30.5143 5.11996 41.4084C3.77916 48.2313 4.08788 56.1509 5.74652 65.0523C7.54034 74.6781 11.6029 86.2181 17.209 97.6615C21.805 106.961 27.0495 116.092 32.2208 123.533C37.4123 131.002 40.6419 133.949 42.8668 136.276C42.9253 136.355 43.1938 136.468 43.2504 136.546C43.2724 136.575 43.3728 136.605 43.3947 136.634C43.4769 136.685 43.5592 136.734 43.6468 136.782C43.7345 136.834 43.8185 136.887 43.9007 136.937C43.9227 136.966 44.025 136.995 44.0469 137.024C44.1053 137.103 44.3757 137.145 44.4341 137.221C47.8044 140.98 51.361 143.097 55.5624 139.209C55.6007 139.159 55.8985 139.154 55.9369 139.105C56.0191 139.072 56.1031 139.037 56.1871 139.002C56.2711 138.973 56.3552 138.944 56.4392 138.911C56.4776 138.862 56.7753 138.769 56.8155 138.718C61.1795 135.893 71.0016 122.7 79.5487 107.247C87.4382 93.032 93.66 77.2474 95.7205 65.0541C97.2293 56.1199 97.686 48.2222 96.3416 41.3938C94.1934 30.4942 88.7279 20.633 80.4804 13.4141C72.379 6.30104 62.1348 2.21531 51.1655 2.04013Z" fill="url(#paint5_linear_750:4784)"/>
<path d="M49.8451 29.1555C54.8301 29.2759 59.3786 31.4438 62.7069 34.9912C66.0516 38.5569 68.0445 43.3926 68.0445 48.6608C68.0445 53.929 66.0516 58.7647 62.7069 62.3303C59.3786 65.8778 54.8301 68.0475 49.8451 68.1661C44.86 68.0456 40.3116 65.8778 36.9851 62.3303C33.6405 58.7647 31.6475 53.929 31.6475 48.6608C31.6475 43.3926 33.6405 38.5569 36.9851 34.9912C40.3134 31.4438 44.86 29.2741 49.8451 29.1555ZM50.2725 2.37289L50.2214 2.37107C50.0972 2.36924 49.9748 2.36377 49.8506 2.36377C49.7574 2.36377 49.6569 2.36742 49.5638 2.36924C49.5327 2.36924 49.4998 2.37107 49.4688 2.37107C49.445 2.37107 49.3702 2.37289 49.3464 2.37289C38.8009 2.55537 28.9623 6.37285 21.0837 12.9695C13.0317 19.6866 7.46023 28.9365 4.92295 39.2776C3.29354 45.9163 3.19489 53.5257 4.40417 61.9636C5.79794 71.6788 9.73813 83.4524 15.2949 95.1457C19.7868 104.523 24.9874 113.786 30.1734 121.459C34.8899 128.437 38.1615 131.884 40.5984 134.671C40.6678 134.766 40.8961 134.886 40.9655 134.979C40.9911 135.014 41.0769 135.049 41.1043 135.085C41.1829 135.147 41.2614 135.206 41.3455 135.266C41.4295 135.328 41.508 135.39 41.5866 135.45C41.6122 135.485 41.6999 135.519 41.7254 135.554C41.7967 135.647 42.025 135.715 42.0944 135.806C45.914 140.322 49.6423 142.965 53.2738 140.049C53.303 140.012 53.641 140.027 53.6702 139.99C53.7579 139.966 53.8474 139.939 53.9369 139.91C54.0264 139.89 54.1159 139.868 54.2036 139.844C54.2328 139.808 54.5708 139.718 54.6018 139.68C58.8398 137.561 69.5131 123.41 78.7453 106.647C87.0403 91.6257 93.6365 74.7773 95.2878 61.9636C96.3766 53.5038 96.3966 45.9035 94.7617 39.2594C92.2172 28.9128 86.6348 19.6574 78.5699 12.944C70.6804 6.35096 60.8308 2.54077 50.2725 2.37289Z" fill="url(#paint6_linear_750:4784)"/>
<path d="M48.9571 28.9616C54.028 29.082 58.635 31.2937 61.9943 34.874C65.37 38.4725 67.4068 43.3702 67.4068 48.7315C67.4068 54.0928 65.37 58.9905 61.9943 62.589C58.635 66.1693 54.0262 68.3809 48.9571 68.5014C43.8862 68.3809 39.2793 66.1693 35.92 62.589C32.5443 58.9905 30.5075 54.0928 30.5075 48.7315C30.5075 43.3702 32.5443 38.4725 35.92 34.874C39.2793 31.2937 43.8862 29.082 48.9571 28.9616ZM49.3791 2.70456H49.3462C49.2165 2.70274 49.0886 2.69727 48.9608 2.69727C48.853 2.69727 48.7398 2.70274 48.632 2.70456C48.6101 2.70456 48.59 2.70456 48.568 2.70639C48.5406 2.70639 48.4785 2.70821 48.4511 2.70821C38.3184 2.88704 28.8781 6.42898 21.2114 12.5056C13.3457 18.7208 7.64636 27.3594 4.72547 37.1495C2.80013 43.602 2.2777 50.9067 3.06318 58.8756C4.0295 68.682 7.87653 80.6856 13.384 92.6325C17.7699 102.089 22.9377 111.474 28.1291 119.39C32.3817 125.871 35.6843 129.826 38.3349 133.07C38.4153 133.18 38.6016 133.307 38.6838 133.415C38.7148 133.455 38.7843 133.497 38.8153 133.537C38.8902 133.608 38.9651 133.68 39.0436 133.749C39.1222 133.822 39.1971 133.893 39.272 133.962C39.303 134.003 39.3724 134.045 39.4035 134.085C39.4857 134.194 39.6739 134.285 39.7561 134.391C44.025 139.665 47.925 142.833 50.9866 140.889C51.0067 140.866 51.3866 140.9 51.4067 140.877C51.4999 140.86 51.5931 140.84 51.688 140.82C51.783 140.809 51.8762 140.796 51.9694 140.78C51.9894 140.754 52.3694 140.67 52.3895 140.645C56.5032 139.232 68.026 124.125 77.9432 106.05C86.6437 90.222 93.6765 72.3134 94.8547 58.8774C95.5544 50.8921 95.1123 43.5874 93.1833 37.1294C90.2551 27.3302 84.543 18.688 76.6627 12.4764C68.9796 6.40161 59.5246 2.86697 49.3791 2.70456Z" fill="url(#paint7_linear_750:4784)"/>
<path d="M48.0672 28.7683C53.2221 28.8888 57.8893 31.1442 61.2815 34.7573C64.6901 38.3887 66.7689 43.3485 66.7689 48.801C66.7689 54.2535 64.6901 59.2133 61.2815 62.8447C57.8911 66.4578 53.2221 68.7114 48.0672 68.8336C42.9122 68.7132 38.245 66.4578 34.8528 62.8447C31.4442 59.2133 29.3654 54.2535 29.3654 48.801C29.3654 43.3485 31.4442 38.3887 34.8528 34.7573C38.245 31.1442 42.9122 28.8888 48.0672 28.7683ZM48.4873 3.03684H48.4709C48.3375 3.03501 48.2042 3.02954 48.0708 3.02954C47.9466 3.02954 47.8224 3.03501 47.6982 3.03684C47.6872 3.03684 47.6762 3.03684 47.6671 3.03684C47.6342 3.03684 47.5867 3.03867 47.5539 3.03867C37.8358 3.21202 28.7918 6.48024 21.3371 12.0349C13.6577 17.7466 7.8177 25.7684 4.52599 35.0146C2.29742 41.2755 1.33658 48.2773 1.71836 55.7827C2.22252 65.6786 6.00927 77.9157 11.4674 90.1126C15.7492 99.649 20.9005 109.147 26.0792 117.311C29.8751 123.293 33.2033 127.758 36.0639 131.463C36.1571 131.589 36.3014 131.722 36.3946 131.846C36.4293 131.893 36.4841 131.939 36.5188 131.986C36.59 132.068 36.6631 132.149 36.7362 132.229C36.8092 132.311 36.8823 132.391 36.9535 132.474C36.9882 132.521 37.043 132.567 37.0777 132.612C37.1727 132.736 37.3189 132.851 37.412 132.975C42.1304 139.006 46.2021 142.7 48.6937 141.727C48.7028 141.714 49.1248 141.771 49.1358 141.76C49.2344 141.753 49.333 141.74 49.4335 141.725C49.534 141.723 49.6326 141.718 49.7313 141.711C49.7404 141.698 50.1624 141.618 50.1733 141.605C54.161 140.899 66.5351 124.833 77.139 105.448C86.247 88.8134 93.7894 69.8391 94.4214 55.7845C94.7594 48.2682 93.8387 41.2591 91.6047 34.9927C88.3038 25.7373 82.4511 17.7101 74.7534 12.0021C67.2804 6.45104 58.2199 3.19195 48.4873 3.03684Z" fill="url(#paint8_linear_750:4784)"/>
<path d="M47.1778 69.1659C36.6706 68.9214 28.2258 59.9306 28.2258 48.8705C28.2258 37.8104 36.6725 28.8196 47.1778 28.5751C57.685 28.8196 66.1298 37.8104 66.1298 48.8705C66.1316 59.9288 57.685 68.9214 47.1778 69.1659ZM47.5943 3.37094C47.4554 3.36911 47.3184 3.36364 47.1796 3.36182C47.0408 3.36364 46.902 3.36729 46.765 3.37094C21.0798 3.77969 0.375977 25.7028 0.375977 52.6934C0.375977 84.7552 39.2865 142.567 46.4051 142.567L46.8691 142.643C46.9714 142.643 47.0773 142.638 47.1814 142.632C47.2856 142.638 47.3915 142.643 47.4938 142.643L47.9578 142.567C55.0746 142.567 93.9869 84.7552 93.9869 52.6934C93.9832 25.701 73.2795 3.77787 47.5943 3.37094Z" fill="url(#paint9_linear_750:4784)"/>
<defs>
<linearGradient id="paint0_linear_750:4784" x1="8.25965" y1="61.4152" x2="104.228" y2="82.9535" gradientUnits="userSpaceOnUse">
<stop stop-color="#8527D5"/>
<stop offset="1" stop-color="#4400A8"/>
</linearGradient>
<linearGradient id="paint1_linear_750:4784" x1="7.98884" y1="60.0397" x2="102.27" y2="83.0911" gradientUnits="userSpaceOnUse">
<stop stop-color="#8B2FD8"/>
<stop offset="0.5132" stop-color="#6715C2"/>
<stop offset="0.7755" stop-color="#6514C0"/>
<stop offset="0.8951" stop-color="#5E10BA"/>
<stop offset="0.9856" stop-color="#510AB0"/>
<stop offset="1" stop-color="#4E09AE"/>
</linearGradient>
<linearGradient id="paint2_linear_750:4784" x1="7.65785" y1="58.8554" x2="100.472" y2="83.428" gradientUnits="userSpaceOnUse">
<stop stop-color="#9136DC"/>
<stop offset="0.5132" stop-color="#6A16C5"/>
<stop offset="0.798" stop-color="#6816C3"/>
<stop offset="0.9279" stop-color="#6114BC"/>
<stop offset="1" stop-color="#5812B4"/>
</linearGradient>
<linearGradient id="paint3_linear_750:4784" x1="7.2574" y1="57.8669" x2="98.9393" y2="84.0153" gradientUnits="userSpaceOnUse">
<stop stop-color="#973EDF"/>
<stop offset="0.5132" stop-color="#6C18C9"/>
<stop offset="0.8113" stop-color="#6B18C7"/>
<stop offset="0.9472" stop-color="#661AC0"/>
<stop offset="1" stop-color="#621BBA"/>
</linearGradient>
<linearGradient id="paint4_linear_750:4784" x1="6.80061" y1="56.9545" x2="97.5565" y2="84.7156" gradientUnits="userSpaceOnUse">
<stop stop-color="#9D45E2"/>
<stop offset="0.5132" stop-color="#6F19CC"/>
<stop offset="0.8285" stop-color="#6E1BCA"/>
<stop offset="0.9722" stop-color="#6D22C3"/>
<stop offset="1" stop-color="#6C24C0"/>
</linearGradient>
<linearGradient id="paint5_linear_750:4784" x1="6.27443" y1="56.1042" x2="96.2469" y2="85.5081" gradientUnits="userSpaceOnUse">
<stop stop-color="#A34DE6"/>
<stop offset="0.5132" stop-color="#721BD0"/>
<stop offset="0.798" stop-color="#721DCF"/>
<stop offset="0.9279" stop-color="#7424CB"/>
<stop offset="1" stop-color="#752DC6"/>
</linearGradient>
<linearGradient id="paint6_linear_750:4784" x1="5.66704" y1="55.3097" x2="94.9718" y2="86.387" gradientUnits="userSpaceOnUse">
<stop stop-color="#A954E9"/>
<stop offset="0.5132" stop-color="#751CD3"/>
<stop offset="0.7729" stop-color="#761ED2"/>
<stop offset="0.8914" stop-color="#7925D0"/>
<stop offset="0.981" stop-color="#7E32CD"/>
<stop offset="1" stop-color="#7F36CC"/>
</linearGradient>
<linearGradient id="paint7_linear_750:4784" x1="4.96198" y1="54.5651" x2="93.7006" y2="87.3502" gradientUnits="userSpaceOnUse">
<stop stop-color="#AF5CEC"/>
<stop offset="0.5132" stop-color="#771ED7"/>
<stop offset="0.7579" stop-color="#7820D7"/>
<stop offset="0.8696" stop-color="#7C27D6"/>
<stop offset="0.9539" stop-color="#8334D4"/>
<stop offset="1" stop-color="#893FD2"/>
</linearGradient>
<linearGradient id="paint8_linear_750:4784" x1="4.13979" y1="53.8758" x2="92.4077" y2="88.4084" gradientUnits="userSpaceOnUse">
<stop stop-color="#B563F0"/>
<stop offset="0.5132" stop-color="#7A1FDA"/>
<stop offset="0.745" stop-color="#7B21DA"/>
<stop offset="0.8507" stop-color="#8029DA"/>
<stop offset="0.9306" stop-color="#8835D9"/>
<stop offset="0.9975" stop-color="#9247D8"/>
<stop offset="1" stop-color="#9348D8"/>
</linearGradient>
<linearGradient id="paint9_linear_750:4784" x1="3.17373" y1="53.2609" x2="91.0654" y2="89.5881" gradientUnits="userSpaceOnUse">
<stop stop-color="#BB6BF3"/>
<stop offset="0.5132" stop-color="#7D21DE"/>
<stop offset="0.736" stop-color="#7E23DE"/>
<stop offset="0.8377" stop-color="#832BDE"/>
<stop offset="0.9147" stop-color="#8C37DE"/>
<stop offset="0.979" stop-color="#9849DE"/>
<stop offset="1" stop-color="#9D51DE"/>
</linearGradient>
</defs>
</svg>
