<svg xmlns="http://www.w3.org/2000/svg" xmlns:xlink="http://www.w3.org/1999/xlink" viewBox="0 0 36 36"><defs><style>.cls-1,.cls-2,.cls-3{fill:#8526ff;fill-rule:evenodd;}.cls-1{opacity:0.12;}.cls-1,.cls-2{isolation:isolate;}.cls-2{opacity:0.5;}.cls-4,.cls-5{fill:none;stroke-linejoin:round;stroke-width:3px;}.cls-4{stroke:url(#Безымянный_градиент);}.cls-5{stroke:#fff;}</style><linearGradient id="Безымянный_градиент" x1="17.96" y1="14" x2="18.04" y2="26" gradientTransform="matrix(1, 0, 0, -1, 0, 38)" gradientUnits="userSpaceOnUse"><stop offset="0" stop-color="#fff"/><stop offset="1" stop-color="#fff" stop-opacity="0"/></linearGradient></defs><title>Ресурс 1</title><g id="Слой_2" data-name="Слой 2"><g id="Слой_1-2" data-name="Слой 1"><path class="cls-1" d="M18.11,0A18,18,0,1,0,36,18.11,18,18,0,0,0,18.11,0Z"/><path class="cls-2" d="M12.47,24.5,17.91,33l5.54-8.43a11,11,0,0,1-11-.07Z"/><path class="cls-3" d="M18,12a6,6,0,1,0,6,6A6,6,0,0,0,18,12Z"/><path class="cls-4" d="M18,10.5A7.5,7.5,0,1,0,25.5,18,7.5,7.5,0,0,0,18,10.5Z"/><path class="cls-5" d="M18,10.5A7.5,7.5,0,1,0,25.5,18,7.5,7.5,0,0,0,18,10.5Z"/></g></g></svg>