<svg width="41" height="40" viewBox="0 0 41 40" fill="none" xmlns="http://www.w3.org/2000/svg">
<path fill-rule="evenodd" clip-rule="evenodd" d="M20.8511 40C31.8968 40 40.8511 31.0457 40.8511 20C40.8511 8.9543 31.8968 0 20.8511 0C9.80538 0 0.851074 8.9543 0.851074 20C0.851074 31.0457 9.80538 40 20.8511 40ZM26.1299 17.0982C27.1802 16.4918 27.5401 15.1487 26.9337 14.0984C26.3273 13.048 24.9842 12.6882 23.9338 13.2946C23.1409 13.7524 22.7415 14.6301 22.8542 15.4847L16.7058 19.0345C16.5501 18.8553 16.3626 18.6985 16.1455 18.5732C15.0952 17.9668 13.7521 18.3266 13.1457 19.377C12.5392 20.4274 12.8991 21.7704 13.9495 22.3769C14.7492 22.8386 15.7185 22.7401 16.4033 22.2033L22.8572 25.9295C22.7346 26.791 23.1341 27.6798 23.9338 28.1415C24.9842 28.7479 26.3273 28.3881 26.9337 27.3377C27.5401 26.2873 27.1802 24.9443 26.1299 24.3378C25.1615 23.7787 23.9443 24.041 23.2849 24.9085L17.0737 21.3225C17.251 20.9001 17.2863 20.4457 17.1958 20.0194L23.2725 16.511C23.9289 17.3917 25.1554 17.6609 26.1299 17.0982Z" fill="#5F00A5"/>
</svg>
