<svg width="24" height="24" viewBox="0 0 24 24" fill="none" xmlns="http://www.w3.org/2000/svg">
<path d="M14.7637 3L9.23625 3C4.1925 3 3 4.1925 3 9.23625L3 14.7638C3 19.8075 4.1925 21 9.23625 21H14.7637C19.8075 21 21 19.8075 21 14.7638V9.23625C21 4.1925 19.8075 3 14.7637 3ZM17.5312 15.8438H16.2225C15.7275 15.8438 15.5738 15.4388 14.685 14.5463C13.9088 13.7963 13.5675 13.695 13.3763 13.695C13.11 13.695 13.035 13.7587 13.035 14.1412V15.3225C13.035 15.6413 12.9338 15.8287 12.0937 15.8287C10.71 15.8287 9.17249 14.9887 8.09249 13.4288C6.46499 11.1412 6.0225 9.41625 6.0225 9.07125C6.0225 8.88 6.08625 8.70375 6.46875 8.70375H7.78875C8.11875 8.70375 8.24624 8.8425 8.37374 9.21C9.02249 11.0775 10.1025 12.7162 10.545 12.7162C10.71 12.7162 10.785 12.6412 10.785 12.2213V10.29C10.7325 9.40125 10.2637 9.32625 10.2637 9.0075C10.2637 8.85375 10.3913 8.70375 10.5938 8.70375H12.6525C12.9337 8.70375 13.035 8.8575 13.035 9.1875L13.035 11.79C13.035 12.0712 13.1475 12.1725 13.2375 12.1725C13.4025 12.1725 13.5412 12.0712 13.8487 11.7675C14.79 10.7137 15.4613 9.08625 15.4613 9.08625C15.5513 8.895 15.7013 8.71875 16.0312 8.71875H17.34C17.7337 8.71875 17.8238 8.92125 17.7338 9.2025C17.5688 9.96375 15.9675 12.225 15.9825 12.225C15.8437 12.4538 15.7912 12.555 15.9825 12.81C16.1212 13.0013 16.5787 13.395 16.8862 13.7513C17.445 14.385 17.8763 14.9213 17.9925 15.2887C18.09 15.6525 17.9137 15.8438 17.5312 15.8438Z"/>
</svg>
