<?xml version="1.0" encoding="utf-8"?>
<!-- Generator: Adobe Illustrator 24.0.1, SVG Export Plug-In . SVG Version: 6.00 Build 0)  -->
<svg version="1.1" id="Слой_1" xmlns="http://www.w3.org/2000/svg" xmlns:xlink="http://www.w3.org/1999/xlink" x="0px" y="0px"
	 viewBox="0 0 2388 1634" style="enable-background:new 0 0 2388 1634;" xml:space="preserve">
<style type="text/css">
	.st0{fill:#650EA6;}
</style>
<path class="st0" d="M1990,163.5L1592,327V0L1990,163.5z"/>
<path class="st0" d="M1990,490.5L1592,654V327L1990,490.5z"/>
<path class="st0" d="M1990,817l-398,163V654L1990,817z"/>
<path class="st0" d="M1990,1143.5L1592,1307V980L1990,1143.5z"/>
<path class="st0" d="M1990,1470.5L1592,1634v-327L1990,1470.5z"/>
<path class="st0" d="M1194,163.5L796,327V0L1194,163.5z"/>
<path class="st0" d="M1194,490.5L796,654V327L1194,490.5z"/>
<path class="st0" d="M1194,817L796,980V654L1194,817z"/>
<path class="st0" d="M1194,1143.5L796,1307V980L1194,1143.5z"/>
<path class="st0" d="M1194,1470.5L796,1634v-327L1194,1470.5z"/>
<path class="st0" d="M398,163.5L0,327V0L398,163.5z"/>
<path class="st0" d="M398,490.5L0,654V327L398,490.5z"/>
<path class="st0" d="M398,817L0,980V654L398,817z"/>
<path class="st0" d="M398,1143.5L0,1307V980L398,1143.5z"/>
<path class="st0" d="M398,1470.5L0,1634v-327L398,1470.5z"/>
<path class="st0" d="M2388,160l-398,100V60L2388,160z"/>
<path class="st0" d="M2388,489l-398,100V389L2388,489z"/>
<path class="st0" d="M2388,818l-398,100V718L2388,818z"/>
<path class="st0" d="M2388,1147l-398,100v-200L2388,1147z"/>
<path class="st0" d="M2388,1476l-398,100v-200L2388,1476z"/>
<path class="st0" d="M1592,160l-398,100V60L1592,160z"/>
<path class="st0" d="M1592,489l-398,100V389L1592,489z"/>
<path class="st0" d="M1592,818l-398,100V718L1592,818z"/>
<path class="st0" d="M1592,1147l-398,100v-200L1592,1147z"/>
<path class="st0" d="M1592,1476l-398,100v-200L1592,1476z"/>
<path class="st0" d="M796,160L398,260V60L796,160z"/>
<path class="st0" d="M796,489L398,589V389L796,489z"/>
<path class="st0" d="M796,818L398,918V718L796,818z"/>
<path class="st0" d="M796,1147l-398,100v-200L796,1147z"/>
<path class="st0" d="M796,1476l-398,100v-200L796,1476z"/>
</svg>
