<svg width="1071" height="609" viewBox="0 0 1071 609" fill="none" xmlns="http://www.w3.org/2000/svg">
<path fill-rule="evenodd" clip-rule="evenodd" d="M350.551 46.5179C337.711 38.7818 321.622 38.8746 308.872 46.7584L195.405 116.917C157.174 140.557 108.937 140.847 70.4233 117.671L9.69079 81.1239C0.226583 75.4287 -2.82874 63.1395 2.86653 53.6753C8.56181 44.2111 20.851 41.1558 30.3152 46.851L91.0477 83.398C116.724 98.849 148.881 98.6551 174.369 82.8955L287.836 12.7367C313.336 -3.0308 345.513 -3.21641 371.193 12.2558L539.019 113.368C571.146 132.724 571.313 179.249 539.326 198.836L430.522 265.462C392.471 288.763 344.634 289.028 306.327 266.15L281.351 251.234C268.599 243.618 252.678 243.695 240.001 251.433L198.158 276.974C191.71 280.91 191.787 290.299 198.298 294.129L356.19 386.988C381.544 401.899 413.036 401.695 438.195 386.455L755.928 193.986C781.143 178.712 812.715 178.543 838.091 193.546L897.869 228.887C936.834 251.924 937.231 308.164 898.595 331.748L710.417 446.619C703.987 450.544 704.041 459.898 710.515 463.749L867.702 557.245C892.653 572.086 923.685 572.246 948.787 557.662L1039.96 504.694C1049.51 499.145 1061.75 502.39 1067.3 511.94C1072.85 521.491 1069.6 533.732 1060.05 539.281L968.882 592.248C931.229 614.124 884.68 613.885 847.253 591.624L690.066 498.127C657.697 478.874 657.429 432.101 689.576 412.477L877.754 297.607C890.633 289.745 890.5 270.998 877.512 263.32L817.734 227.978C805.046 220.477 789.26 220.561 776.653 228.198L458.919 420.667C421.182 443.527 373.944 443.834 335.912 421.467L178.021 328.608C145.462 309.46 145.077 262.511 177.318 242.832L219.161 217.291C244.516 201.815 276.358 201.661 301.86 216.892L326.837 231.808C352.375 247.06 384.266 246.883 409.633 231.35L518.438 164.724C524.835 160.806 524.802 151.501 518.376 147.63L350.551 46.5179Z" fill="url(#paint0_linear_750:5482)"/>
<path fill-rule="evenodd" clip-rule="evenodd" d="M350.551 46.5179C337.711 38.7818 321.622 38.8746 308.872 46.7584L195.405 116.917C157.174 140.557 108.937 140.847 70.4233 117.671L9.69079 81.1239C0.226583 75.4287 -2.82874 63.1395 2.86653 53.6753C8.56181 44.2111 20.851 41.1558 30.3152 46.851L91.0477 83.398C116.724 98.849 148.881 98.6551 174.369 82.8955L287.836 12.7367C313.336 -3.0308 345.513 -3.21641 371.193 12.2558L539.019 113.368C571.146 132.724 571.313 179.249 539.326 198.836L430.522 265.462C392.471 288.763 344.634 289.028 306.327 266.15L281.351 251.234C268.599 243.618 252.678 243.695 240.001 251.433L198.158 276.974C191.71 280.91 191.787 290.299 198.298 294.129L356.19 386.988C381.544 401.899 413.036 401.695 438.195 386.455L755.928 193.986C781.143 178.712 812.715 178.543 838.091 193.546L897.869 228.887C936.834 251.924 937.231 308.164 898.595 331.748L710.417 446.619C703.987 450.544 704.041 459.898 710.515 463.749L867.702 557.245C892.653 572.086 923.685 572.246 948.787 557.662L1039.96 504.694C1049.51 499.145 1061.75 502.39 1067.3 511.94C1072.85 521.491 1069.6 533.732 1060.05 539.281L968.882 592.248C931.229 614.124 884.68 613.885 847.253 591.624L690.066 498.127C657.697 478.874 657.429 432.101 689.576 412.477L877.754 297.607C890.633 289.745 890.5 270.998 877.512 263.32L817.734 227.978C805.046 220.477 789.26 220.561 776.653 228.198L458.919 420.667C421.182 443.527 373.944 443.834 335.912 421.467L178.021 328.608C145.462 309.46 145.077 262.511 177.318 242.832L219.161 217.291C244.516 201.815 276.358 201.661 301.86 216.892L326.837 231.808C352.375 247.06 384.266 246.883 409.633 231.35L518.438 164.724C524.835 160.806 524.802 151.501 518.376 147.63L350.551 46.5179Z" fill="url(#paint1_linear_750:5482)"/>
<path fill-rule="evenodd" clip-rule="evenodd" d="M350.551 46.5179C337.711 38.7818 321.622 38.8746 308.872 46.7584L195.405 116.917C157.174 140.557 108.937 140.847 70.4233 117.671L9.69079 81.1239C0.226583 75.4287 -2.82874 63.1395 2.86653 53.6753C8.56181 44.2111 20.851 41.1558 30.3152 46.851L91.0477 83.398C116.724 98.849 148.881 98.6551 174.369 82.8955L287.836 12.7367C313.336 -3.0308 345.513 -3.21641 371.193 12.2558L539.019 113.368C571.146 132.724 571.313 179.249 539.326 198.836L430.522 265.462C392.471 288.763 344.634 289.028 306.327 266.15L281.351 251.234C268.599 243.618 252.678 243.695 240.001 251.433L198.158 276.974C191.71 280.91 191.787 290.299 198.298 294.129L356.19 386.988C381.544 401.899 413.036 401.695 438.195 386.455L755.928 193.986C781.143 178.712 812.715 178.543 838.091 193.546L897.869 228.887C936.834 251.924 937.231 308.164 898.595 331.748L710.417 446.619C703.987 450.544 704.041 459.898 710.515 463.749L867.702 557.245C892.653 572.086 923.685 572.246 948.787 557.662L1039.96 504.694C1049.51 499.145 1061.75 502.39 1067.3 511.94C1072.85 521.491 1069.6 533.732 1060.05 539.281L968.882 592.248C931.229 614.124 884.68 613.885 847.253 591.624L690.066 498.127C657.697 478.874 657.429 432.101 689.576 412.477L877.754 297.607C890.633 289.745 890.5 270.998 877.512 263.32L817.734 227.978C805.046 220.477 789.26 220.561 776.653 228.198L458.919 420.667C421.182 443.527 373.944 443.834 335.912 421.467L178.021 328.608C145.462 309.46 145.077 262.511 177.318 242.832L219.161 217.291C244.516 201.815 276.358 201.661 301.86 216.892L326.837 231.808C352.375 247.06 384.266 246.883 409.633 231.35L518.438 164.724C524.835 160.806 524.802 151.501 518.376 147.63L350.551 46.5179Z" fill="url(#paint2_linear_750:5482)"/>
<path d="M350.551 46.5179C337.711 38.7818 321.622 38.8746 308.872 46.7584L195.405 116.917C157.174 140.557 108.937 140.847 70.4233 117.671L9.69079 81.1239C0.226583 75.4287 -2.82874 63.1395 2.86653 53.6753C8.56181 44.2111 20.851 41.1558 30.3152 46.851L91.0477 83.398C116.724 98.849 148.881 98.6551 174.369 82.8955L287.836 12.7367C313.336 -3.0308 345.513 -3.21641 371.193 12.2558L539.019 113.368C571.146 132.724 571.313 179.249 539.326 198.836L491.736 227.978L464.036 198.037L518.438 164.724C524.835 160.806 524.802 151.501 518.376 147.63L350.551 46.5179Z" fill="url(#paint3_linear_750:5482)"/>
<path fill-rule="evenodd" clip-rule="evenodd" d="M350.551 46.5179C337.711 38.7818 321.622 38.8746 308.872 46.7584L195.405 116.917C157.174 140.557 108.937 140.847 70.4233 117.671L9.69079 81.1239C0.226583 75.4287 -2.82874 63.1395 2.86653 53.6753C8.56181 44.2111 20.851 41.1558 30.3152 46.851L91.0477 83.398C116.724 98.849 148.881 98.6551 174.369 82.8955L287.836 12.7367C313.336 -3.0308 345.513 -3.21641 371.193 12.2558L539.019 113.368C571.146 132.724 571.313 179.249 539.326 198.836L430.522 265.462C392.471 288.763 344.634 289.028 306.327 266.15L281.351 251.234C268.599 243.618 252.678 243.695 240.001 251.433L198.158 276.974C191.71 280.91 191.787 290.299 198.298 294.129L356.19 386.988C381.544 401.899 413.036 401.695 438.195 386.455L755.928 193.986C781.143 178.712 812.715 178.543 838.091 193.546L897.869 228.887C936.834 251.924 937.231 308.164 898.595 331.748L710.417 446.619C703.987 450.544 704.041 459.898 710.515 463.749L867.702 557.245C892.653 572.086 923.685 572.246 948.787 557.662L1039.96 504.694C1049.51 499.145 1061.75 502.39 1067.3 511.94C1072.85 521.491 1069.6 533.732 1060.05 539.281L968.882 592.248C931.229 614.124 884.68 613.885 847.253 591.624L690.066 498.127C657.697 478.874 657.429 432.101 689.576 412.477L877.754 297.607C890.633 289.745 890.5 270.998 877.512 263.32L817.734 227.978C805.046 220.477 789.26 220.561 776.653 228.198L458.919 420.667C421.182 443.527 373.944 443.834 335.912 421.467L178.021 328.608C145.462 309.46 145.077 262.511 177.318 242.832L219.161 217.291C244.516 201.815 276.358 201.661 301.86 216.892L326.837 231.808C352.375 247.06 384.266 246.883 409.633 231.35L518.438 164.724C524.835 160.806 524.802 151.501 518.376 147.63L350.551 46.5179Z" fill="url(#paint4_linear_750:5482)"/>
<g filter="url(#filter0_f_750:5482)">
<ellipse cx="51.1557" cy="82.8211" rx="46.9145" ry="7.70494" transform="rotate(31.0854 51.1557 82.8211)" fill="url(#paint5_linear_750:5482)" fill-opacity="0.7"/>
</g>
<g filter="url(#filter1_f_750:5482)">
<path d="M325.505 387.782C267.222 352.288 208.281 316.484 184.587 300.469C181.124 298.128 165.503 302.976 198.198 324.469C239.561 351.659 363.557 426.227 389 428.5C392.44 428.807 398.245 428.188 404.849 427.043C424.523 423.632 433.082 407.606 414 413.487C383 423.043 354.388 403.336 325.505 387.782Z" fill="url(#paint6_linear_750:5482)" fill-opacity="0.7"/>
</g>
<g opacity="0.1" filter="url(#filter2_f_750:5482)">
<path d="M324 386C265.717 350.506 208.281 316.484 184.587 300.469C181.124 298.128 165.503 302.976 198.198 324.469C239.561 351.659 357 428 392 428C395.245 428.29 400.424 427.784 406.303 426.804C425.412 423.622 420.582 405.353 403 413.487C389.2 419.872 352.883 401.554 324 386Z" fill="url(#paint7_linear_750:5482)" fill-opacity="0.7"/>
</g>
<g filter="url(#filter3_f_750:5482)">
<path d="M835.503 555.487C776.774 520.737 723.486 487.491 699.591 471.779C696.098 469.482 677.037 471.412 710.003 492.487C751.708 519.15 869.503 598.987 916.003 598.987C920.72 599.348 931.137 596.195 942.353 591.801C962.374 583.959 957.491 575.301 936.944 581.639C934.042 582.535 931.348 583.337 929.003 583.987C896.999 592.86 864.582 570.672 835.503 555.487Z" fill="url(#paint8_linear_750:5482)" fill-opacity="0.7"/>
</g>
<g opacity="0.2" filter="url(#filter4_f_750:5482)">
<path d="M835.503 555.487C776.774 520.737 723.486 487.491 699.591 471.779C696.098 469.482 677.037 471.412 710.003 492.487C751.708 519.15 869.503 598.987 916.003 598.987C920.72 599.348 931.137 596.195 942.353 591.801C962.374 583.959 957.491 575.301 936.944 581.639C934.042 582.535 931.348 583.337 929.003 583.987C896.999 592.86 864.582 570.672 835.503 555.487Z" fill="url(#paint9_linear_750:5482)" fill-opacity="0.7"/>
</g>
<g filter="url(#filter5_f_750:5482)">
<path d="M530.069 125.408L352.05 18.1901C348.378 15.9786 344.254 14.6253 339.985 14.2315L327.992 13.1248C327.021 13.0353 326.045 13.2348 325.188 13.6984L323.932 14.3769C319.749 16.638 321.356 22.9875 326.111 22.9875C326.372 22.9875 326.632 23.0098 326.889 23.0542L334.876 24.432C338.355 25.0323 341.692 26.2751 344.717 28.0968L523.739 135.919C526.641 137.667 530.411 136.731 532.159 133.828C533.907 130.926 532.971 127.156 530.069 125.408Z" fill="url(#paint10_linear_750:5482)" fill-opacity="0.7"/>
</g>
<g opacity="0.1" filter="url(#filter6_f_750:5482)">
<path d="M518.285 118.311L350.982 17.5468C347.123 15.223 342.769 13.8485 338.275 13.5362L327.47 12.7854C326.51 12.7187 325.552 12.9384 324.717 13.4166L323.075 14.3568C319.123 16.6199 320.813 22.6618 325.365 22.546C325.624 22.5395 325.882 22.5557 326.138 22.5947L333.214 23.6732C336.89 24.2334 340.42 25.5089 343.606 27.4274L511.955 128.821C514.857 130.569 518.627 129.634 520.375 126.731C522.123 123.829 521.188 120.059 518.285 118.311Z" fill="url(#paint11_linear_750:5482)" fill-opacity="0.7"/>
</g>
<g filter="url(#filter7_f_750:5482)">
<path d="M414.385 244.469C382.683 261.996 340.5 255.531 305.5 240.5C288.474 233.188 330.29 276.003 374.739 273.887C409.377 272.239 446.242 226.857 414.385 244.469Z" fill="url(#paint12_linear_750:5482)" fill-opacity="0.7"/>
</g>
<g opacity="0.1" filter="url(#filter8_f_750:5482)">
<path d="M415.778 245.141C384.034 261.79 341.873 255.789 306.917 241.674C289.912 234.808 331.611 275.165 376.06 273.049C410.698 271.4 447.677 228.412 415.778 245.141Z" fill="url(#paint13_linear_750:5482)" fill-opacity="0.7"/>
</g>
<g opacity="0.2" filter="url(#filter9_f_750:5482)">
<path d="M444.778 397.141C413.034 413.79 370.873 407.789 335.917 393.674C318.912 386.808 360.611 427.165 405.06 425.049C439.698 423.4 476.677 380.412 444.778 397.141Z" fill="url(#paint14_linear_750:5482)" fill-opacity="0.7"/>
</g>
<g opacity="0.2" filter="url(#filter10_f_750:5482)">
<path d="M444.778 398.141C413.034 414.79 370.873 408.789 335.917 394.674C318.912 387.808 360.611 428.165 405.06 426.049C439.698 424.4 476.677 381.412 444.778 398.141Z" fill="url(#paint15_linear_750:5482)" fill-opacity="0.7"/>
</g>
<g filter="url(#filter11_f_750:5482)">
<path d="M303.929 248.148C272.492 230.148 262.265 226.526 230.5 245.5C211 257.148 215.272 229.861 254.5 220C288.131 211.546 335.517 266.235 303.929 248.148Z" fill="url(#paint16_linear_750:5482)" fill-opacity="0.7"/>
</g>
<g filter="url(#filter12_f_750:5482)">
<path d="M757.003 226.988C788.003 206.488 801.974 204.622 842.503 228.988C926.503 279.487 840.762 196.473 796.267 195.782C761.594 195.243 726.641 247.066 757.003 226.988Z" fill="url(#paint17_linear_750:5482)" fill-opacity="0.7"/>
</g>
<g opacity="0.1" filter="url(#filter13_f_750:5482)">
<path d="M757.003 226.988C788.003 206.488 801.974 204.622 842.503 228.988C926.503 279.487 840.762 196.473 796.267 195.782C761.594 195.243 726.641 247.066 757.003 226.988Z" fill="url(#paint18_linear_750:5482)" fill-opacity="0.7"/>
</g>
<g opacity="0.1" filter="url(#filter14_f_750:5482)">
<path d="M757.003 226.988C788.003 206.488 801.974 204.622 842.503 228.988C926.503 279.487 840.762 196.473 796.267 195.782C761.594 195.243 726.641 247.066 757.003 226.988Z" fill="url(#paint19_linear_750:5482)" fill-opacity="0.7"/>
</g>
<defs>
<filter id="filter0_f_750:5482" x="4.77875" y="51.7096" width="92.7538" height="62.2231" filterUnits="userSpaceOnUse" color-interpolation-filters="sRGB">
<feFlood flood-opacity="0" result="BackgroundImageFix"/>
<feBlend mode="normal" in="SourceGraphic" in2="BackgroundImageFix" result="shape"/>
<feGaussianBlur stdDeviation="3" result="effect1_foregroundBlur_750:5482"/>
</filter>
<filter id="filter1_f_750:5482" x="171.823" y="293.933" width="258.871" height="140.646" filterUnits="userSpaceOnUse" color-interpolation-filters="sRGB">
<feFlood flood-opacity="0" result="BackgroundImageFix"/>
<feBlend mode="normal" in="SourceGraphic" in2="BackgroundImageFix" result="shape"/>
<feGaussianBlur stdDeviation="3" result="effect1_foregroundBlur_750:5482"/>
</filter>
<filter id="filter2_f_750:5482" x="171.823" y="293.933" width="252.755" height="140.149" filterUnits="userSpaceOnUse" color-interpolation-filters="sRGB">
<feFlood flood-opacity="0" result="BackgroundImageFix"/>
<feBlend mode="normal" in="SourceGraphic" in2="BackgroundImageFix" result="shape"/>
<feGaussianBlur stdDeviation="3" result="effect1_foregroundBlur_750:5482"/>
</filter>
<filter id="filter3_f_750:5482" x="684.945" y="465.027" width="276.16" height="139.988" filterUnits="userSpaceOnUse" color-interpolation-filters="sRGB">
<feFlood flood-opacity="0" result="BackgroundImageFix"/>
<feBlend mode="normal" in="SourceGraphic" in2="BackgroundImageFix" result="shape"/>
<feGaussianBlur stdDeviation="3" result="effect1_foregroundBlur_750:5482"/>
</filter>
<filter id="filter4_f_750:5482" x="684.945" y="465.027" width="276.16" height="139.988" filterUnits="userSpaceOnUse" color-interpolation-filters="sRGB">
<feFlood flood-opacity="0" result="BackgroundImageFix"/>
<feBlend mode="normal" in="SourceGraphic" in2="BackgroundImageFix" result="shape"/>
<feGaussianBlur stdDeviation="3" result="effect1_foregroundBlur_750:5482"/>
</filter>
<filter id="filter5_f_750:5482" x="313.523" y="5.10388" width="227.517" height="139.695" filterUnits="userSpaceOnUse" color-interpolation-filters="sRGB">
<feFlood flood-opacity="0" result="BackgroundImageFix"/>
<feBlend mode="normal" in="SourceGraphic" in2="BackgroundImageFix" result="shape"/>
<feGaussianBlur stdDeviation="4" result="effect1_foregroundBlur_750:5482"/>
</filter>
<filter id="filter6_f_750:5482" x="312.86" y="4.77368" width="216.395" height="132.928" filterUnits="userSpaceOnUse" color-interpolation-filters="sRGB">
<feFlood flood-opacity="0" result="BackgroundImageFix"/>
<feBlend mode="normal" in="SourceGraphic" in2="BackgroundImageFix" result="shape"/>
<feGaussianBlur stdDeviation="4" result="effect1_foregroundBlur_750:5482"/>
</filter>
<filter id="filter7_f_750:5482" x="295.614" y="233.659" width="136.942" height="46.3047" filterUnits="userSpaceOnUse" color-interpolation-filters="sRGB">
<feFlood flood-opacity="0" result="BackgroundImageFix"/>
<feBlend mode="normal" in="SourceGraphic" in2="BackgroundImageFix" result="shape"/>
<feGaussianBlur stdDeviation="3" result="effect1_foregroundBlur_750:5482"/>
</filter>
<filter id="filter8_f_750:5482" x="297.032" y="234.887" width="136.922" height="44.2427" filterUnits="userSpaceOnUse" color-interpolation-filters="sRGB">
<feFlood flood-opacity="0" result="BackgroundImageFix"/>
<feBlend mode="normal" in="SourceGraphic" in2="BackgroundImageFix" result="shape"/>
<feGaussianBlur stdDeviation="3" result="effect1_foregroundBlur_750:5482"/>
</filter>
<filter id="filter9_f_750:5482" x="326.032" y="386.887" width="136.922" height="44.2427" filterUnits="userSpaceOnUse" color-interpolation-filters="sRGB">
<feFlood flood-opacity="0" result="BackgroundImageFix"/>
<feBlend mode="normal" in="SourceGraphic" in2="BackgroundImageFix" result="shape"/>
<feGaussianBlur stdDeviation="3" result="effect1_foregroundBlur_750:5482"/>
</filter>
<filter id="filter10_f_750:5482" x="326.032" y="387.887" width="136.922" height="44.2427" filterUnits="userSpaceOnUse" color-interpolation-filters="sRGB">
<feFlood flood-opacity="0" result="BackgroundImageFix"/>
<feBlend mode="normal" in="SourceGraphic" in2="BackgroundImageFix" result="shape"/>
<feGaussianBlur stdDeviation="3" result="effect1_foregroundBlur_750:5482"/>
</filter>
<filter id="filter11_f_750:5482" x="213.181" y="213.105" width="107.139" height="44.7349" filterUnits="userSpaceOnUse" color-interpolation-filters="sRGB">
<feFlood flood-opacity="0" result="BackgroundImageFix"/>
<feBlend mode="normal" in="SourceGraphic" in2="BackgroundImageFix" result="shape"/>
<feGaussianBlur stdDeviation="3" result="effect1_foregroundBlur_750:5482"/>
</filter>
<filter id="filter12_f_750:5482" x="739.403" y="189.778" width="144.576" height="61.4944" filterUnits="userSpaceOnUse" color-interpolation-filters="sRGB">
<feFlood flood-opacity="0" result="BackgroundImageFix"/>
<feBlend mode="normal" in="SourceGraphic" in2="BackgroundImageFix" result="shape"/>
<feGaussianBlur stdDeviation="3" result="effect1_foregroundBlur_750:5482"/>
</filter>
<filter id="filter13_f_750:5482" x="739.403" y="189.778" width="144.576" height="61.4944" filterUnits="userSpaceOnUse" color-interpolation-filters="sRGB">
<feFlood flood-opacity="0" result="BackgroundImageFix"/>
<feBlend mode="normal" in="SourceGraphic" in2="BackgroundImageFix" result="shape"/>
<feGaussianBlur stdDeviation="3" result="effect1_foregroundBlur_750:5482"/>
</filter>
<filter id="filter14_f_750:5482" x="739.403" y="189.778" width="144.576" height="61.4944" filterUnits="userSpaceOnUse" color-interpolation-filters="sRGB">
<feFlood flood-opacity="0" result="BackgroundImageFix"/>
<feBlend mode="normal" in="SourceGraphic" in2="BackgroundImageFix" result="shape"/>
<feGaussianBlur stdDeviation="3" result="effect1_foregroundBlur_750:5482"/>
</filter>
<linearGradient id="paint0_linear_750:5482" x1="783.003" y1="377.487" x2="923.84" y2="221.544" gradientUnits="userSpaceOnUse">
<stop stop-color="#3AD772"/>
<stop offset="1" stop-color="#3BDA74"/>
</linearGradient>
<linearGradient id="paint1_linear_750:5482" x1="268.674" y1="436.132" x2="214.925" y2="531.753" gradientUnits="userSpaceOnUse">
<stop stop-color="#3AD864"/>
</linearGradient>
<linearGradient id="paint2_linear_750:5482" x1="405.503" y1="416.487" x2="443.825" y2="264.024" gradientUnits="userSpaceOnUse">
<stop stop-color="#38D670"/>
<stop offset="1" stop-color="#36D26C" stop-opacity="0"/>
</linearGradient>
<linearGradient id="paint3_linear_750:5482" x1="524.003" y1="43.9875" x2="507.503" y2="227.488" gradientUnits="userSpaceOnUse">
<stop stop-color="#3AD571"/>
<stop offset="1" stop-color="#3AD771" stop-opacity="0"/>
</linearGradient>
<linearGradient id="paint4_linear_750:5482" x1="25.003" y1="63.9875" x2="352.514" y2="388.657" gradientUnits="userSpaceOnUse">
<stop stop-color="#3AD85D"/>
<stop offset="1" stop-color="#3CDA74" stop-opacity="0"/>
</linearGradient>
<linearGradient id="paint5_linear_750:5482" x1="14.0477" y1="77.4693" x2="34.8775" y2="120.861" gradientUnits="userSpaceOnUse">
<stop stop-color="white" stop-opacity="0.4"/>
<stop offset="0.317377" stop-color="white" stop-opacity="0.26"/>
<stop offset="0.866865" stop-color="#FDFDFD" stop-opacity="0.18"/>
</linearGradient>
<linearGradient id="paint6_linear_750:5482" x1="203.018" y1="319.537" x2="398.582" y2="460.573" gradientUnits="userSpaceOnUse">
<stop stop-color="white" stop-opacity="0.15"/>
<stop offset="0.317377" stop-color="white" stop-opacity="0.28"/>
<stop offset="0.866865" stop-color="#FDFDFD" stop-opacity="0.28"/>
<stop offset="1" stop-color="white" stop-opacity="0"/>
</linearGradient>
<linearGradient id="paint7_linear_750:5482" x1="203.018" y1="319.537" x2="398.582" y2="460.573" gradientUnits="userSpaceOnUse">
<stop stop-color="white" stop-opacity="0.15"/>
<stop offset="0.317377" stop-color="white" stop-opacity="0.28"/>
<stop offset="0.866865" stop-color="#FDFDFD" stop-opacity="0.28"/>
<stop offset="1" stop-color="white" stop-opacity="0"/>
</linearGradient>
<linearGradient id="paint8_linear_750:5482" x1="718.262" y1="490.611" x2="915.604" y2="629.148" gradientUnits="userSpaceOnUse">
<stop stop-color="white" stop-opacity="0.15"/>
<stop offset="0.317377" stop-color="white" stop-opacity="0.26"/>
<stop offset="0.866865" stop-color="#FDFDFD" stop-opacity="0.28"/>
<stop offset="1" stop-color="white" stop-opacity="0"/>
</linearGradient>
<linearGradient id="paint9_linear_750:5482" x1="718.262" y1="490.611" x2="915.604" y2="629.148" gradientUnits="userSpaceOnUse">
<stop stop-color="white" stop-opacity="0.15"/>
<stop offset="0.317377" stop-color="white" stop-opacity="0.26"/>
<stop offset="0.866865" stop-color="#FDFDFD" stop-opacity="0.28"/>
<stop offset="1" stop-color="white" stop-opacity="0"/>
</linearGradient>
<linearGradient id="paint10_linear_750:5482" x1="289.003" y1="-24.0125" x2="261.582" y2="87.856" gradientUnits="userSpaceOnUse">
<stop stop-color="white" stop-opacity="0.15"/>
<stop offset="0.317377" stop-color="white" stop-opacity="0.17"/>
<stop offset="0.832314" stop-color="#FDFDFD" stop-opacity="0.28"/>
<stop offset="1" stop-color="white" stop-opacity="0"/>
</linearGradient>
<linearGradient id="paint11_linear_750:5482" x1="290.919" y1="-22.8584" x2="265.482" y2="88.8555" gradientUnits="userSpaceOnUse">
<stop stop-color="white" stop-opacity="0.15"/>
<stop offset="0.317377" stop-color="white" stop-opacity="0.17"/>
<stop offset="0.832314" stop-color="#FDFDFD" stop-opacity="0.28"/>
<stop offset="1" stop-color="white" stop-opacity="0"/>
</linearGradient>
<linearGradient id="paint12_linear_750:5482" x1="327.793" y1="255.098" x2="395.568" y2="293.147" gradientUnits="userSpaceOnUse">
<stop stop-color="white" stop-opacity="0.15"/>
<stop offset="0.159348" stop-color="white" stop-opacity="0.17"/>
<stop offset="0.297226" stop-color="#FEFEFE" stop-opacity="0.262485"/>
<stop offset="0.585455" stop-color="#FDFDFD" stop-opacity="0.33"/>
<stop offset="1" stop-color="white" stop-opacity="0"/>
</linearGradient>
<linearGradient id="paint13_linear_750:5482" x1="329.169" y1="255.413" x2="394.845" y2="294.54" gradientUnits="userSpaceOnUse">
<stop stop-color="white" stop-opacity="0.15"/>
<stop offset="0.159348" stop-color="white" stop-opacity="0.17"/>
<stop offset="0.297226" stop-color="#FEFEFE" stop-opacity="0.262485"/>
<stop offset="0.585455" stop-color="#FDFDFD" stop-opacity="0.33"/>
<stop offset="1" stop-color="white" stop-opacity="0"/>
</linearGradient>
<linearGradient id="paint14_linear_750:5482" x1="358.169" y1="407.413" x2="423.845" y2="446.54" gradientUnits="userSpaceOnUse">
<stop stop-color="white" stop-opacity="0.15"/>
<stop offset="0.159348" stop-color="white" stop-opacity="0.17"/>
<stop offset="0.297226" stop-color="#FEFEFE" stop-opacity="0.262485"/>
<stop offset="0.585455" stop-color="#FDFDFD" stop-opacity="0.33"/>
<stop offset="1" stop-color="white" stop-opacity="0"/>
</linearGradient>
<linearGradient id="paint15_linear_750:5482" x1="358.169" y1="408.413" x2="423.845" y2="447.54" gradientUnits="userSpaceOnUse">
<stop stop-color="white" stop-opacity="0.15"/>
<stop offset="0.159348" stop-color="white" stop-opacity="0.17"/>
<stop offset="0.297226" stop-color="#FEFEFE" stop-opacity="0.262485"/>
<stop offset="0.585455" stop-color="#FDFDFD" stop-opacity="0.33"/>
<stop offset="1" stop-color="white" stop-opacity="0"/>
</linearGradient>
<linearGradient id="paint16_linear_750:5482" x1="217.505" y1="236.223" x2="285.843" y2="199.193" gradientUnits="userSpaceOnUse">
<stop stop-color="white" stop-opacity="0.15"/>
<stop offset="0.159348" stop-color="white" stop-opacity="0.17"/>
<stop offset="0.297226" stop-color="#FEFEFE" stop-opacity="0.262485"/>
<stop offset="0.585455" stop-color="#FDFDFD" stop-opacity="0.33"/>
<stop offset="1" stop-color="white" stop-opacity="0"/>
</linearGradient>
<linearGradient id="paint17_linear_750:5482" x1="841.936" y1="217.493" x2="776.694" y2="175.247" gradientUnits="userSpaceOnUse">
<stop stop-color="white" stop-opacity="0.15"/>
<stop offset="0.159348" stop-color="white" stop-opacity="0.17"/>
<stop offset="0.297226" stop-color="#FEFEFE" stop-opacity="0.262485"/>
<stop offset="0.585455" stop-color="#FDFDFD" stop-opacity="0.33"/>
<stop offset="1" stop-color="white" stop-opacity="0"/>
</linearGradient>
<linearGradient id="paint18_linear_750:5482" x1="841.936" y1="217.493" x2="776.694" y2="175.247" gradientUnits="userSpaceOnUse">
<stop stop-color="white" stop-opacity="0.15"/>
<stop offset="0.238181" stop-color="white" stop-opacity="0.17"/>
<stop offset="0.449056" stop-color="#FEFEFE" stop-opacity="0.262485"/>
<stop offset="0.66836" stop-color="#FDFDFD" stop-opacity="0.33"/>
<stop offset="1" stop-color="white" stop-opacity="0"/>
</linearGradient>
<linearGradient id="paint19_linear_750:5482" x1="841.936" y1="217.493" x2="776.694" y2="175.247" gradientUnits="userSpaceOnUse">
<stop stop-color="white" stop-opacity="0.15"/>
<stop offset="0.238181" stop-color="white" stop-opacity="0.17"/>
<stop offset="0.449056" stop-color="#FEFEFE" stop-opacity="0.262485"/>
<stop offset="0.66836" stop-color="#FDFDFD" stop-opacity="0.33"/>
<stop offset="1" stop-color="white" stop-opacity="0"/>
</linearGradient>
</defs>
</svg>
