<svg width="1164" height="618" viewBox="0 0 1164 618" fill="none" xmlns="http://www.w3.org/2000/svg">
<path fill-rule="evenodd" clip-rule="evenodd" d="M440.385 51.5559C414.839 36.097 382.809 36.1519 357.316 51.6984L278.137 99.9841C271.749 103.879 271.744 113.153 278.129 117.055L341.699 155.903C380.212 179.439 379.926 235.472 341.174 258.614L308.167 278.325C270.034 301.097 222.443 300.944 184.458 277.928L9.89781 171.5C0.450927 165.776 -2.56709 153.478 3.15688 144.031C8.88086 134.584 21.1793 131.566 30.6261 137.29L205.186 243.718C230.51 259.062 262.237 259.163 287.658 243.982L320.666 224.271C333.583 216.557 333.679 197.88 320.841 190.034L257.271 151.186C225.35 131.679 225.372 85.3106 257.311 65.8333L336.49 17.5477C374.73 -5.77213 422.774 -5.85457 461.094 17.3339L644.775 128.483C683.461 151.893 683.332 208.06 644.538 231.292L569.616 276.159C563.165 280.022 563.126 289.357 569.544 293.274L649.928 342.334C675.377 357.865 707.351 357.957 732.888 342.572L914.718 233.028C952.891 210.031 1000.66 210.082 1038.79 233.162L1134.44 291.068C1173.07 314.453 1172.99 370.517 1134.31 393.802L766.582 615.13C757.119 620.826 744.829 617.772 739.133 608.308C733.437 598.845 736.491 586.555 745.955 580.859L1113.68 359.531C1126.57 351.769 1126.6 333.081 1113.72 325.286L1018.07 267.38C992.657 251.993 960.808 251.959 935.36 267.291L753.53 376.835C715.224 399.912 667.263 399.774 629.09 376.477L548.706 327.417C516.613 307.83 516.808 261.159 549.065 241.842L623.987 196.975C636.918 189.231 636.961 170.509 624.066 162.705L440.385 51.5559Z" fill="#39D670"/>
<path d="M1038.79 233.162L1134.44 291.068C1173.07 314.453 1172.99 370.517 1134.31 393.802L950.444 504.466L929.817 470.195L1113.68 359.531C1126.58 351.769 1126.6 333.081 1113.72 325.286L1018.07 267.38L1038.79 233.162Z" fill="url(#paint0_linear_750:5609)"/>
<path d="M644.537 231.292L569.616 276.159C563.164 280.022 563.125 289.356 569.544 293.274L649.928 342.333C675.376 357.865 707.35 357.957 732.888 342.572L914.718 233.028L935.359 267.291L753.529 376.835C715.223 399.912 667.262 399.774 629.09 376.477L548.706 327.417C516.612 307.83 516.808 261.159 549.065 241.842L623.986 196.975L644.537 231.292Z" fill="url(#paint1_linear_750:5609)"/>
<path d="M1134.31 393.802L766.582 615.13C757.118 620.826 744.829 617.772 739.133 608.308C733.436 598.845 736.491 586.555 745.954 580.859L1113.68 359.531L1134.31 393.802Z" fill="url(#paint2_linear_750:5609)"/>
<path d="M184.458 277.928L9.63877 171.469C0.191894 165.745 -2.82612 153.447 2.89785 144C8.62182 134.553 20.9202 131.535 30.3671 137.259L205.186 243.718L184.458 277.928Z" fill="url(#paint3_linear_750:5609)"/>
<g filter="url(#filter0_f_750:5609)">
<path d="M355.842 42.6018C386.395 21.4413 412.109 22.0437 438.965 38.3267C487.012 67.4585 448.903 12.1102 395.916 13.2482C361.246 13.9928 325.918 63.327 355.842 42.6018Z" fill="url(#paint4_linear_750:5609)" fill-opacity="0.7"/>
</g>
<g opacity="0.1" filter="url(#filter1_f_750:5609)">
<path d="M355.842 42.6017C386.395 21.4412 401.256 15.959 441.517 40.7629C490.173 70.738 445.336 9.01598 392.927 13.8124C358.394 16.9727 325.918 63.3269 355.842 42.6017Z" fill="url(#paint5_linear_750:5609)" fill-opacity="0.7"/>
</g>
<g opacity="0.1" filter="url(#filter2_f_750:5609)">
<path d="M355.842 42.6018C386.395 21.4412 400.475 17.2731 441.517 40.7629C503.291 76.1177 448.354 13.1232 392.938 14.3122C358.268 15.0561 325.918 63.3269 355.842 42.6018Z" fill="url(#paint6_linear_750:5609)" fill-opacity="0.7"/>
</g>
<g opacity="0.9">
<g filter="url(#filter3_f_750:5609)">
<ellipse rx="82.8955" ry="5.08379" transform="matrix(0.856251 0.51656 -0.525061 0.851064 527.806 83.7154)" fill="url(#paint7_linear_750:5609)" fill-opacity="0.7"/>
</g>
<g opacity="0.2" filter="url(#filter4_f_750:5609)">
<ellipse rx="82.8955" ry="5.08379" transform="matrix(0.856251 0.51656 -0.525061 0.851064 527.806 83.7154)" fill="url(#paint8_linear_750:5609)" fill-opacity="0.7"/>
</g>
</g>
<g filter="url(#filter5_f_750:5609)">
<path d="M932.371 257.959C962.924 236.799 988.638 237.401 1015.49 253.684C1063.54 282.816 1025.43 227.468 972.444 228.606C937.775 229.35 902.446 278.685 932.371 257.959Z" fill="url(#paint9_linear_750:5609)" fill-opacity="0.7"/>
</g>
<g opacity="0.1" filter="url(#filter6_f_750:5609)">
<path d="M932.371 257.959C962.924 236.799 977.784 231.317 1018.05 256.121C1066.7 286.096 1021.86 224.374 969.456 229.17C934.923 232.33 902.446 278.685 932.371 257.959Z" fill="url(#paint10_linear_750:5609)" fill-opacity="0.7"/>
</g>
<g opacity="0.1" filter="url(#filter7_f_750:5609)">
<path d="M932.371 257.959C962.924 236.799 977.004 232.631 1018.05 256.121C1079.82 291.475 1024.88 228.481 969.466 229.67C934.797 230.414 902.446 278.685 932.371 257.959Z" fill="url(#paint11_linear_750:5609)" fill-opacity="0.7"/>
</g>
<g opacity="0.9">
<g filter="url(#filter8_f_750:5609)">
<ellipse rx="59.4011" ry="3.72927" transform="matrix(0.844501 0.535553 -0.506172 0.862433 1082.75 286.946)" fill="url(#paint12_linear_750:5609)" fill-opacity="0.7"/>
</g>
<g opacity="0.2" filter="url(#filter9_f_750:5609)">
<ellipse rx="59.4011" ry="3.72927" transform="matrix(0.844501 0.535553 -0.506172 0.862433 1082.75 286.946)" fill="url(#paint13_linear_750:5609)" fill-opacity="0.7"/>
</g>
</g>
<g filter="url(#filter10_f_750:5609)">
<path d="M644.112 356.445C617.959 340.646 620.701 342.619 604.916 333.075C599.403 329.74 553.11 306.069 582.752 327.717C622.726 356.91 657.592 383.617 704.072 382.265C708.798 382.489 719.119 379.034 730.202 374.316C749.987 365.895 744.854 357.383 724.501 364.316C721.625 365.295 718.956 366.176 716.631 366.894C684.898 376.693 673.62 370.778 644.112 356.445Z" fill="url(#paint14_linear_750:5609)" fill-opacity="0.7"/>
</g>
<g opacity="0.2" filter="url(#filter11_f_750:5609)">
<path d="M628.285 345.401C619.981 341.367 609.389 335.658 585.047 320.647C581.489 318.452 564.513 317.64 597.095 339.305C630.249 361.35 657.592 383.617 704.072 382.265C708.797 382.489 719.118 379.034 730.202 374.316C749.987 365.895 744.854 357.383 724.5 364.316C721.625 365.295 718.956 366.176 716.63 366.894C684.898 376.693 657.793 359.734 628.285 345.401Z" fill="url(#paint15_linear_750:5609)" fill-opacity="0.7"/>
</g>
<g filter="url(#filter12_f_750:5609)">
<ellipse cx="787.502" cy="579.959" rx="44.3533" ry="7.70494" transform="rotate(-30.6631 787.502 579.959)" fill="url(#paint16_linear_750:5609)" fill-opacity="0.7"/>
</g>
<g filter="url(#filter13_f_750:5609)">
<path d="M171.28 239.872C112.55 205.122 114.16 207.212 90.2648 191.5C86.7717 189.203 67.7111 191.133 100.677 212.209C136.076 234.839 186.436 267.74 231.279 284.872C239.267 287.924 251.198 286.472 255.779 284.872C260.664 283.167 268.487 280.446 276.974 277.359C297.181 270.009 293.451 263.74 272.904 270.078C270.002 270.973 267.308 271.776 264.963 272.426C232.959 281.298 200.358 255.057 171.28 239.872Z" fill="url(#paint17_linear_750:5609)" fill-opacity="0.7"/>
</g>
<g opacity="0.2" filter="url(#filter14_f_750:5609)">
<path d="M173.78 241.372C127.096 212.353 117.177 206.208 93.2651 192.5C89.6381 190.421 69.4184 194.308 103.677 213.209C176.177 253.208 199.78 285.872 246.28 285.872C251.358 286.261 263.834 282.793 277.004 278.145C297.28 270.988 293.451 263.74 272.905 270.078C270.002 270.973 267.308 271.776 264.963 272.426C232.959 281.298 210.78 264.372 173.78 241.372Z" fill="url(#paint18_linear_750:5609)" fill-opacity="0.7"/>
</g>
<g filter="url(#filter15_f_750:5609)">
<ellipse cx="40.2105" cy="168.076" rx="32.8371" ry="7.14866" transform="rotate(31.0854 40.2105 168.076)" fill="url(#paint19_linear_750:5609)" fill-opacity="0.7"/>
</g>
<defs>
<filter id="filter0_f_750:5609" x="338.573" y="7.23083" width="128.386" height="46.4513" filterUnits="userSpaceOnUse" color-interpolation-filters="sRGB">
<feFlood flood-opacity="0" result="BackgroundImageFix"/>
<feBlend mode="normal" in="SourceGraphic" in2="BackgroundImageFix" result="shape"/>
<feGaussianBlur stdDeviation="3" result="effect1_foregroundBlur_750:5609"/>
</filter>
<filter id="filter1_f_750:5609" x="338.056" y="7.54504" width="130.329" height="47.4668" filterUnits="userSpaceOnUse" color-interpolation-filters="sRGB">
<feFlood flood-opacity="0" result="BackgroundImageFix"/>
<feBlend mode="normal" in="SourceGraphic" in2="BackgroundImageFix" result="shape"/>
<feGaussianBlur stdDeviation="3" result="effect1_foregroundBlur_750:5609"/>
</filter>
<filter id="filter2_f_750:5609" x="338.036" y="8.29553" width="136.749" height="49.252" filterUnits="userSpaceOnUse" color-interpolation-filters="sRGB">
<feFlood flood-opacity="0" result="BackgroundImageFix"/>
<feBlend mode="normal" in="SourceGraphic" in2="BackgroundImageFix" result="shape"/>
<feGaussianBlur stdDeviation="3" result="effect1_foregroundBlur_750:5609"/>
</filter>
<filter id="filter3_f_750:5609" x="446.776" y="30.6736" width="162.061" height="106.084" filterUnits="userSpaceOnUse" color-interpolation-filters="sRGB">
<feFlood flood-opacity="0" result="BackgroundImageFix"/>
<feBlend mode="normal" in="SourceGraphic" in2="BackgroundImageFix" result="shape"/>
<feGaussianBlur stdDeviation="5" result="effect1_foregroundBlur_750:5609"/>
</filter>
<filter id="filter4_f_750:5609" x="446.776" y="30.6736" width="162.061" height="106.084" filterUnits="userSpaceOnUse" color-interpolation-filters="sRGB">
<feFlood flood-opacity="0" result="BackgroundImageFix"/>
<feBlend mode="normal" in="SourceGraphic" in2="BackgroundImageFix" result="shape"/>
<feGaussianBlur stdDeviation="5" result="effect1_foregroundBlur_750:5609"/>
</filter>
<filter id="filter5_f_750:5609" x="915.101" y="222.589" width="128.386" height="46.4513" filterUnits="userSpaceOnUse" color-interpolation-filters="sRGB">
<feFlood flood-opacity="0" result="BackgroundImageFix"/>
<feBlend mode="normal" in="SourceGraphic" in2="BackgroundImageFix" result="shape"/>
<feGaussianBlur stdDeviation="3" result="effect1_foregroundBlur_750:5609"/>
</filter>
<filter id="filter6_f_750:5609" x="914.585" y="222.903" width="130.329" height="47.4668" filterUnits="userSpaceOnUse" color-interpolation-filters="sRGB">
<feFlood flood-opacity="0" result="BackgroundImageFix"/>
<feBlend mode="normal" in="SourceGraphic" in2="BackgroundImageFix" result="shape"/>
<feGaussianBlur stdDeviation="3" result="effect1_foregroundBlur_750:5609"/>
</filter>
<filter id="filter7_f_750:5609" x="914.564" y="223.653" width="136.749" height="49.252" filterUnits="userSpaceOnUse" color-interpolation-filters="sRGB">
<feFlood flood-opacity="0" result="BackgroundImageFix"/>
<feBlend mode="normal" in="SourceGraphic" in2="BackgroundImageFix" result="shape"/>
<feGaussianBlur stdDeviation="3" result="effect1_foregroundBlur_750:5609"/>
</filter>
<filter id="filter8_f_750:5609" x="1022.55" y="244.969" width="120.401" height="83.9541" filterUnits="userSpaceOnUse" color-interpolation-filters="sRGB">
<feFlood flood-opacity="0" result="BackgroundImageFix"/>
<feBlend mode="normal" in="SourceGraphic" in2="BackgroundImageFix" result="shape"/>
<feGaussianBlur stdDeviation="5" result="effect1_foregroundBlur_750:5609"/>
</filter>
<filter id="filter9_f_750:5609" x="1022.55" y="244.969" width="120.401" height="83.9541" filterUnits="userSpaceOnUse" color-interpolation-filters="sRGB">
<feFlood flood-opacity="0" result="BackgroundImageFix"/>
<feBlend mode="normal" in="SourceGraphic" in2="BackgroundImageFix" result="shape"/>
<feGaussianBlur stdDeviation="5" result="effect1_foregroundBlur_750:5609"/>
</filter>
<filter id="filter10_f_750:5609" x="566.918" y="312.693" width="181.757" height="75.621" filterUnits="userSpaceOnUse" color-interpolation-filters="sRGB">
<feFlood flood-opacity="0" result="BackgroundImageFix"/>
<feBlend mode="normal" in="SourceGraphic" in2="BackgroundImageFix" result="shape"/>
<feGaussianBlur stdDeviation="3" result="effect1_foregroundBlur_750:5609"/>
</filter>
<filter id="filter11_f_750:5609" x="571.458" y="313.586" width="177.217" height="74.738" filterUnits="userSpaceOnUse" color-interpolation-filters="sRGB">
<feFlood flood-opacity="0" result="BackgroundImageFix"/>
<feBlend mode="normal" in="SourceGraphic" in2="BackgroundImageFix" result="shape"/>
<feGaussianBlur stdDeviation="3" result="effect1_foregroundBlur_750:5609"/>
</filter>
<filter id="filter12_f_750:5609" x="743.145" y="550.382" width="88.7134" height="59.1536" filterUnits="userSpaceOnUse" color-interpolation-filters="sRGB">
<feFlood flood-opacity="0" result="BackgroundImageFix"/>
<feBlend mode="normal" in="SourceGraphic" in2="BackgroundImageFix" result="shape"/>
<feGaussianBlur stdDeviation="3" result="effect1_foregroundBlur_750:5609"/>
</filter>
<filter id="filter13_f_750:5609" x="75.6187" y="184.748" width="220.742" height="107.909" filterUnits="userSpaceOnUse" color-interpolation-filters="sRGB">
<feFlood flood-opacity="0" result="BackgroundImageFix"/>
<feBlend mode="normal" in="SourceGraphic" in2="BackgroundImageFix" result="shape"/>
<feGaussianBlur stdDeviation="3" result="effect1_foregroundBlur_750:5609"/>
</filter>
<filter id="filter14_f_750:5609" x="78.0425" y="185.997" width="218.364" height="105.905" filterUnits="userSpaceOnUse" color-interpolation-filters="sRGB">
<feFlood flood-opacity="0" result="BackgroundImageFix"/>
<feBlend mode="normal" in="SourceGraphic" in2="BackgroundImageFix" result="shape"/>
<feGaussianBlur stdDeviation="3" result="effect1_foregroundBlur_750:5609"/>
</filter>
<filter id="filter15_f_750:5609" x="5.84448" y="144.046" width="68.7319" height="48.0613" filterUnits="userSpaceOnUse" color-interpolation-filters="sRGB">
<feFlood flood-opacity="0" result="BackgroundImageFix"/>
<feBlend mode="normal" in="SourceGraphic" in2="BackgroundImageFix" result="shape"/>
<feGaussianBlur stdDeviation="3" result="effect1_foregroundBlur_750:5609"/>
</filter>
<linearGradient id="paint0_linear_750:5609" x1="1249.77" y1="351.995" x2="986.768" y2="320.495" gradientUnits="userSpaceOnUse">
<stop stop-color="#3AD85D"/>
<stop offset="1" stop-color="#3AD85D" stop-opacity="0"/>
</linearGradient>
<linearGradient id="paint1_linear_750:5609" x1="656.268" y1="474.995" x2="702.268" y2="186.495" gradientUnits="userSpaceOnUse">
<stop stop-color="#42D069"/>
<stop offset="1" stop-color="#38D062" stop-opacity="0"/>
</linearGradient>
<linearGradient id="paint2_linear_750:5609" x1="810.768" y1="563.995" x2="1096.27" y2="401.495" gradientUnits="userSpaceOnUse">
<stop stop-color="#38D062"/>
<stop offset="1" stop-color="#38D062" stop-opacity="0"/>
</linearGradient>
<linearGradient id="paint3_linear_750:5609" x1="40" y1="164" x2="177.268" y2="253.495" gradientUnits="userSpaceOnUse">
<stop stop-color="#3AD85E"/>
<stop offset="1" stop-color="#C4C4C4" stop-opacity="0"/>
<stop offset="1" stop-color="#3AD85E" stop-opacity="0"/>
</linearGradient>
<linearGradient id="paint4_linear_750:5609" x1="440.552" y1="31.2878" x2="374.419" y2="-9.5494" gradientUnits="userSpaceOnUse">
<stop stop-color="white" stop-opacity="0.15"/>
<stop offset="0.159348" stop-color="white" stop-opacity="0.17"/>
<stop offset="0.297226" stop-color="#FEFEFE" stop-opacity="0.262485"/>
<stop offset="0.585455" stop-color="#FDFDFD" stop-opacity="0.33"/>
<stop offset="1" stop-color="white" stop-opacity="0"/>
</linearGradient>
<linearGradient id="paint5_linear_750:5609" x1="440.552" y1="31.2873" x2="374.419" y2="-9.54994" gradientUnits="userSpaceOnUse">
<stop stop-color="white" stop-opacity="0.15"/>
<stop offset="0.238181" stop-color="white" stop-opacity="0.17"/>
<stop offset="0.449056" stop-color="#FEFEFE" stop-opacity="0.262485"/>
<stop offset="0.66836" stop-color="#FDFDFD" stop-opacity="0.33"/>
<stop offset="1" stop-color="white" stop-opacity="0"/>
</linearGradient>
<linearGradient id="paint6_linear_750:5609" x1="440.55" y1="31.2873" x2="374.417" y2="-9.54992" gradientUnits="userSpaceOnUse">
<stop stop-color="white" stop-opacity="0.15"/>
<stop offset="0.238181" stop-color="white" stop-opacity="0.17"/>
<stop offset="0.449056" stop-color="#FEFEFE" stop-opacity="0.262485"/>
<stop offset="0.66836" stop-color="#FDFDFD" stop-opacity="0.33"/>
<stop offset="1" stop-color="white" stop-opacity="0"/>
</linearGradient>
<linearGradient id="paint7_linear_750:5609" x1="17.3276" y1="1.55258" x2="23.4458" y2="35.6837" gradientUnits="userSpaceOnUse">
<stop stop-color="white" stop-opacity="0.4"/>
<stop offset="0.317377" stop-color="white" stop-opacity="0.26"/>
<stop offset="0.866865" stop-color="#FDFDFD" stop-opacity="0.18"/>
</linearGradient>
<linearGradient id="paint8_linear_750:5609" x1="17.3276" y1="1.55258" x2="23.4458" y2="35.6837" gradientUnits="userSpaceOnUse">
<stop stop-color="white" stop-opacity="0.4"/>
<stop offset="0.317377" stop-color="white" stop-opacity="0.26"/>
<stop offset="0.866865" stop-color="#FDFDFD" stop-opacity="0.18"/>
</linearGradient>
<linearGradient id="paint9_linear_750:5609" x1="1017.08" y1="246.646" x2="950.948" y2="205.808" gradientUnits="userSpaceOnUse">
<stop stop-color="white" stop-opacity="0.15"/>
<stop offset="0.159348" stop-color="white" stop-opacity="0.17"/>
<stop offset="0.297226" stop-color="#FEFEFE" stop-opacity="0.262485"/>
<stop offset="0.585455" stop-color="#FDFDFD" stop-opacity="0.33"/>
<stop offset="1" stop-color="white" stop-opacity="0"/>
</linearGradient>
<linearGradient id="paint10_linear_750:5609" x1="1017.08" y1="246.645" x2="950.947" y2="205.808" gradientUnits="userSpaceOnUse">
<stop stop-color="white" stop-opacity="0.15"/>
<stop offset="0.238181" stop-color="white" stop-opacity="0.17"/>
<stop offset="0.449056" stop-color="#FEFEFE" stop-opacity="0.262485"/>
<stop offset="0.66836" stop-color="#FDFDFD" stop-opacity="0.33"/>
<stop offset="1" stop-color="white" stop-opacity="0"/>
</linearGradient>
<linearGradient id="paint11_linear_750:5609" x1="1017.08" y1="246.645" x2="950.946" y2="205.808" gradientUnits="userSpaceOnUse">
<stop stop-color="white" stop-opacity="0.15"/>
<stop offset="0.238181" stop-color="white" stop-opacity="0.17"/>
<stop offset="0.449056" stop-color="#FEFEFE" stop-opacity="0.262485"/>
<stop offset="0.66836" stop-color="#FDFDFD" stop-opacity="0.33"/>
<stop offset="1" stop-color="white" stop-opacity="0"/>
</linearGradient>
<linearGradient id="paint12_linear_750:5609" x1="12.4166" y1="1.13891" x2="17.0041" y2="26.1388" gradientUnits="userSpaceOnUse">
<stop stop-color="white" stop-opacity="0.4"/>
<stop offset="0.317377" stop-color="white" stop-opacity="0.26"/>
<stop offset="0.866865" stop-color="#FDFDFD" stop-opacity="0.18"/>
</linearGradient>
<linearGradient id="paint13_linear_750:5609" x1="12.4166" y1="1.13891" x2="17.0041" y2="26.1388" gradientUnits="userSpaceOnUse">
<stop stop-color="white" stop-opacity="0.4"/>
<stop offset="0.317377" stop-color="white" stop-opacity="0.26"/>
<stop offset="0.866865" stop-color="#FDFDFD" stop-opacity="0.18"/>
</linearGradient>
<linearGradient id="paint14_linear_750:5609" x1="503.265" y1="279.683" x2="704.551" y2="412.425" gradientUnits="userSpaceOnUse">
<stop stop-color="white" stop-opacity="0.15"/>
<stop offset="0.317377" stop-color="white" stop-opacity="0.26"/>
<stop offset="0.866865" stop-color="#FDFDFD" stop-opacity="0.28"/>
<stop offset="1" stop-color="white" stop-opacity="0"/>
</linearGradient>
<linearGradient id="paint15_linear_750:5609" x1="503.264" y1="279.682" x2="704.55" y2="412.424" gradientUnits="userSpaceOnUse">
<stop stop-color="white" stop-opacity="0.15"/>
<stop offset="0.317377" stop-color="white" stop-opacity="0.26"/>
<stop offset="0.866865" stop-color="#FDFDFD" stop-opacity="0.28"/>
<stop offset="1" stop-color="white" stop-opacity="0"/>
</linearGradient>
<linearGradient id="paint16_linear_750:5609" x1="752.42" y1="574.607" x2="775.426" y2="611.744" gradientUnits="userSpaceOnUse">
<stop stop-color="white" stop-opacity="0.4"/>
<stop offset="0.317377" stop-color="white" stop-opacity="0.26"/>
<stop offset="0.866865" stop-color="#FDFDFD" stop-opacity="0.04"/>
</linearGradient>
<linearGradient id="paint17_linear_750:5609" x1="54.2217" y1="179.048" x2="251.564" y2="317.586" gradientUnits="userSpaceOnUse">
<stop stop-color="white" stop-opacity="0.04"/>
<stop offset="0.317377" stop-color="white" stop-opacity="0.09"/>
<stop offset="0.866865" stop-color="#FDFDFD" stop-opacity="0.28"/>
<stop offset="1" stop-color="white" stop-opacity="0"/>
</linearGradient>
<linearGradient id="paint18_linear_750:5609" x1="54.2228" y1="179.049" x2="251.565" y2="317.586" gradientUnits="userSpaceOnUse">
<stop stop-color="white" stop-opacity="0"/>
<stop offset="0.317377" stop-color="white" stop-opacity="0.09"/>
<stop offset="0.866865" stop-color="#FDFDFD" stop-opacity="0.28"/>
<stop offset="1" stop-color="white" stop-opacity="0"/>
</linearGradient>
<linearGradient id="paint19_linear_750:5609" x1="14.2373" y1="163.111" x2="37.3329" y2="192.86" gradientUnits="userSpaceOnUse">
<stop stop-color="white" stop-opacity="0.4"/>
<stop offset="0.317377" stop-color="white" stop-opacity="0.26"/>
<stop offset="0.866865" stop-color="#FDFDFD" stop-opacity="0.04"/>
</linearGradient>
</defs>
</svg>
