<svg width="1040" height="538" viewBox="0 0 1040 538" fill="none" xmlns="http://www.w3.org/2000/svg">
<path fill-rule="evenodd" clip-rule="evenodd" d="M304.759 9.76604C310.413 0.276973 322.688 -2.83215 332.177 2.82161L417.943 53.9222C457.016 77.2026 456.989 133.796 417.895 157.04L338.885 204.015L439.272 264.522C478.029 287.882 477.961 344.105 439.148 367.371L355.588 417.461C349.115 421.342 349.109 430.721 355.578 434.609L441.828 486.455C467.147 501.674 498.792 501.702 524.138 486.528L738.747 358.04C745.225 354.161 745.232 344.776 738.759 340.888L683.298 307.572C650.827 288.066 650.994 240.943 683.602 221.668L701.408 211.143C739.371 188.702 786.584 188.893 824.365 211.638L1010.41 323.642C1049.12 346.949 1049.15 403.066 1010.46 426.415L869.275 511.626C859.818 517.334 847.525 514.294 841.817 504.837C836.11 495.381 839.149 483.088 848.606 477.38L989.793 392.169C1002.69 384.386 1002.68 365.68 989.774 357.911L803.733 245.907C778.546 230.743 747.071 230.616 721.762 245.577L703.956 256.102C697.435 259.957 697.401 269.382 703.895 273.283L759.357 306.599C791.722 326.041 791.687 372.965 759.294 392.359L544.685 520.847C506.666 543.609 459.198 543.567 421.22 520.738L334.97 468.892C302.627 449.45 302.655 402.556 335.022 383.154L418.582 333.063C431.519 325.308 431.542 306.567 418.623 298.78L299.877 227.208L200.519 286.282C148.71 317.085 84.1364 316.804 32.5975 285.552C-10.954 259.143 -10.8444 195.91 32.7985 169.653L52.1611 158.003C116.935 119.033 197.945 119.065 262.688 158.088L300.018 180.588L397.453 122.658C410.484 114.91 410.493 96.0453 397.469 88.2851L311.703 37.1846C302.214 31.5308 299.105 19.2551 304.759 9.76604ZM261.01 203.781L242.039 192.346C189.988 160.973 124.858 160.947 72.7824 192.278L53.4198 203.928C35.5629 214.671 35.518 240.543 53.3376 251.349C92.2368 274.937 140.974 275.149 180.076 251.9L261.01 203.781Z" fill="#39D670"/>
<path d="M1010.41 323.642C1049.12 346.949 1049.15 403.066 1010.46 426.415L869.275 511.626C859.818 517.334 847.525 514.294 841.817 504.837C836.11 495.381 839.149 483.088 848.606 477.38L989.793 392.169C1002.69 384.386 1002.68 365.68 989.774 357.911L1010.41 323.642Z" fill="url(#paint0_linear_750:5744)"/>
<path d="M439.271 264.522C478.028 287.882 477.96 344.105 439.147 367.371L355.588 417.462L335.021 383.154L418.581 333.063C431.519 325.308 431.541 306.567 418.622 298.78L347.815 256.102L368.172 221.668L439.271 264.522Z" fill="url(#paint1_linear_750:5744)"/>
<path d="M355.588 417.462C349.115 421.342 349.109 430.721 355.578 434.609L441.827 486.455C467.146 501.674 498.792 501.702 524.137 486.528L631.442 422.284L655.5 454.501L544.685 520.847C506.666 543.609 459.198 543.567 421.22 520.738L334.97 468.892C302.626 449.45 302.655 402.556 335.022 383.154L355.588 417.462Z" fill="url(#paint2_linear_750:5744)"/>
<g filter="url(#filter0_f_750:5744)">
<ellipse rx="81.7898" ry="4.95598" transform="matrix(0.858473 0.512859 -0.540704 0.841213 297.897 207.18)" fill="url(#paint3_linear_750:5744)" fill-opacity="0.7"/>
</g>
<g opacity="0.2" filter="url(#filter1_f_750:5744)">
<ellipse rx="81.7898" ry="4.95598" transform="matrix(0.858473 0.512859 -0.540704 0.841213 297.897 207.18)" fill="url(#paint4_linear_750:5744)" fill-opacity="0.7"/>
</g>
<path d="M304.759 9.76604C310.412 0.276973 322.688 -2.83215 332.177 2.82161L417.943 53.9222C457.016 77.2026 456.989 133.796 417.894 157.04L338.885 204.015L300.018 180.588L397.452 122.658C410.484 114.91 410.493 96.0453 397.468 88.2851L311.703 37.1846C302.214 31.5308 299.105 19.2551 304.759 9.76604Z" fill="url(#paint5_linear_750:5744)"/>
<g filter="url(#filter2_f_750:5744)">
<ellipse cx="351.962" cy="38.4988" rx="44.3533" ry="7.70494" transform="rotate(31.0854 351.962 38.4988)" fill="url(#paint6_linear_750:5744)" fill-opacity="0.7"/>
</g>
<g filter="url(#filter3_f_750:5744)">
<ellipse cx="891.947" cy="477.53" rx="44.3533" ry="7.70494" transform="rotate(-31.1381 891.947 477.53)" fill="url(#paint7_linear_750:5744)" fill-opacity="0.7"/>
</g>
<path d="M299.877 227.208L200.519 286.282C148.71 317.085 84.1364 316.804 32.5975 285.552C-10.954 259.143 -10.8444 195.911 32.7985 169.653L52.1611 158.003L72.7824 192.278L53.4198 203.928C35.5629 214.671 35.518 240.544 53.3376 251.349C92.2368 274.937 140.974 275.149 180.076 251.9L261.01 203.781L297.5 187.5L299.877 227.208Z" fill="url(#paint8_linear_750:5744)"/>
<path d="M298.362 187.017C282.862 186.517 272.862 197.017 260.947 204.022L163 262.5L191.5 291L299.353 227.205C301.346 223.756 299.862 191.017 298.362 187.017Z" fill="url(#paint9_linear_750:5744)"/>
<g filter="url(#filter4_f_750:5744)">
<path d="M32.8909 258.25C82.7261 284.167 104.11 289.446 143.208 280.029C232.726 258.469 170.172 303.541 95.4573 296.287C37.2352 290.635 -15.9189 232.866 32.8909 258.25Z" fill="url(#paint10_linear_750:5744)" fill-opacity="0.7"/>
</g>
<g opacity="0.1" filter="url(#filter5_f_750:5744)">
<path d="M74.0275 275.82C106.378 289.86 103.196 289.16 146.109 280.338C231.536 262.776 169.408 308.549 95.4578 296.287C45.7873 288.052 22.4516 253.437 74.0275 275.82Z" fill="url(#paint11_linear_750:5744)" fill-opacity="0.7"/>
</g>
<g opacity="0.1" filter="url(#filter6_f_750:5744)">
<path d="M81.0917 278.542C117.184 291.725 105.375 288.563 139.188 281.098C201.486 267.344 156.774 304.907 95.4578 296.288C52.1728 290.203 27.4419 258.945 81.0917 278.542Z" fill="url(#paint12_linear_750:5744)" fill-opacity="0.7"/>
</g>
<g filter="url(#filter7_f_750:5744)">
<path d="M717.258 237.043C747.77 215.823 773.485 216.376 800.372 232.608C848.476 261.647 810.261 206.372 757.275 207.612C722.607 208.423 687.374 257.825 717.258 237.043Z" fill="url(#paint13_linear_750:5744)" fill-opacity="0.7"/>
</g>
<g opacity="0.1" filter="url(#filter8_f_750:5744)">
<path d="M717.258 237.043C747.77 215.823 762.62 210.313 802.929 235.039C851.642 264.92 806.687 203.285 754.287 208.182C719.761 211.409 687.373 257.825 717.258 237.043Z" fill="url(#paint14_linear_750:5744)" fill-opacity="0.7"/>
</g>
<g opacity="0.1" filter="url(#filter9_f_750:5744)">
<path d="M717.258 237.043C747.77 215.823 761.842 211.628 802.929 235.039C864.771 270.275 809.713 207.386 754.299 208.682C719.631 209.492 687.373 257.825 717.258 237.043Z" fill="url(#paint15_linear_750:5744)" fill-opacity="0.7"/>
</g>
<g opacity="0.9">
<g filter="url(#filter10_f_750:5744)">
<ellipse rx="82.8955" ry="5.08379" transform="matrix(0.857242 0.514913 -0.523424 0.852073 889.301 277.825)" fill="url(#paint16_linear_750:5744)" fill-opacity="0.7"/>
</g>
<g opacity="0.2" filter="url(#filter11_f_750:5744)">
<ellipse rx="82.8955" ry="5.08379" transform="matrix(0.857242 0.514913 -0.523424 0.852073 889.301 277.825)" fill="url(#paint17_linear_750:5744)" fill-opacity="0.7"/>
</g>
</g>
<g filter="url(#filter12_f_750:5744)">
<path d="M437.344 502.45C411.191 486.651 413.933 488.625 398.148 479.08C392.634 475.745 346.342 452.074 375.984 473.722C415.958 502.915 450.824 529.622 497.304 528.27C502.03 528.494 512.351 525.039 523.434 520.321C543.219 511.9 538.086 503.388 517.732 510.321C514.857 511.3 512.188 512.181 509.863 512.899C478.13 522.698 466.852 516.783 437.344 502.45Z" fill="url(#paint18_linear_750:5744)" fill-opacity="0.7"/>
</g>
<g opacity="0.2" filter="url(#filter13_f_750:5744)">
<path d="M421.517 491.406C413.213 487.372 402.621 481.663 378.279 466.652C374.721 464.457 357.745 463.645 390.327 485.31C423.481 507.355 450.824 529.622 497.304 528.27C502.029 528.494 512.35 525.039 523.434 520.321C543.219 511.9 538.086 503.388 517.732 510.321C514.857 511.3 512.188 512.181 509.862 512.899C478.129 522.698 451.025 505.739 421.517 491.406Z" fill="url(#paint19_linear_750:5744)" fill-opacity="0.7"/>
</g>
<defs>
<filter id="filter0_f_750:5744" x="217.63" y="155.023" width="160.533" height="104.313" filterUnits="userSpaceOnUse" color-interpolation-filters="sRGB">
<feFlood flood-opacity="0" result="BackgroundImageFix"/>
<feBlend mode="normal" in="SourceGraphic" in2="BackgroundImageFix" result="shape"/>
<feGaussianBlur stdDeviation="5" result="effect1_foregroundBlur_750:5744"/>
</filter>
<filter id="filter1_f_750:5744" x="217.63" y="155.023" width="160.533" height="104.313" filterUnits="userSpaceOnUse" color-interpolation-filters="sRGB">
<feFlood flood-opacity="0" result="BackgroundImageFix"/>
<feBlend mode="normal" in="SourceGraphic" in2="BackgroundImageFix" result="shape"/>
<feGaussianBlur stdDeviation="5" result="effect1_foregroundBlur_750:5744"/>
</filter>
<filter id="filter2_f_750:5744" x="307.767" y="8.66064" width="88.3896" height="59.6763" filterUnits="userSpaceOnUse" color-interpolation-filters="sRGB">
<feFlood flood-opacity="0" result="BackgroundImageFix"/>
<feBlend mode="normal" in="SourceGraphic" in2="BackgroundImageFix" result="shape"/>
<feGaussianBlur stdDeviation="3" result="effect1_foregroundBlur_750:5744"/>
</filter>
<filter id="filter3_f_750:5744" x="847.772" y="447.659" width="88.3496" height="59.7413" filterUnits="userSpaceOnUse" color-interpolation-filters="sRGB">
<feFlood flood-opacity="0" result="BackgroundImageFix"/>
<feBlend mode="normal" in="SourceGraphic" in2="BackgroundImageFix" result="shape"/>
<feGaussianBlur stdDeviation="3" result="effect1_foregroundBlur_750:5744"/>
</filter>
<filter id="filter4_f_750:5744" x="7.74072" y="245.836" width="185.574" height="57.2513" filterUnits="userSpaceOnUse" color-interpolation-filters="sRGB">
<feFlood flood-opacity="0" result="BackgroundImageFix"/>
<feBlend mode="normal" in="SourceGraphic" in2="BackgroundImageFix" result="shape"/>
<feGaussianBlur stdDeviation="3" result="effect1_foregroundBlur_750:5744"/>
</filter>
<filter id="filter5_f_750:5744" x="38.9805" y="262.4" width="154.432" height="42.0043" filterUnits="userSpaceOnUse" color-interpolation-filters="sRGB">
<feFlood flood-opacity="0" result="BackgroundImageFix"/>
<feBlend mode="normal" in="SourceGraphic" in2="BackgroundImageFix" result="shape"/>
<feGaussianBlur stdDeviation="3" result="effect1_foregroundBlur_750:5744"/>
</filter>
<filter id="filter6_f_750:5744" x="44.502" y="266.164" width="130.672" height="37.4236" filterUnits="userSpaceOnUse" color-interpolation-filters="sRGB">
<feFlood flood-opacity="0" result="BackgroundImageFix"/>
<feBlend mode="normal" in="SourceGraphic" in2="BackgroundImageFix" result="shape"/>
<feGaussianBlur stdDeviation="3" result="effect1_foregroundBlur_750:5744"/>
</filter>
<filter id="filter7_f_750:5744" x="699.996" y="201.591" width="128.383" height="46.5507" filterUnits="userSpaceOnUse" color-interpolation-filters="sRGB">
<feFlood flood-opacity="0" result="BackgroundImageFix"/>
<feBlend mode="normal" in="SourceGraphic" in2="BackgroundImageFix" result="shape"/>
<feGaussianBlur stdDeviation="3" result="effect1_foregroundBlur_750:5744"/>
</filter>
<filter id="filter8_f_750:5744" x="699.48" y="201.903" width="130.33" height="47.3492" filterUnits="userSpaceOnUse" color-interpolation-filters="sRGB">
<feFlood flood-opacity="0" result="BackgroundImageFix"/>
<feBlend mode="normal" in="SourceGraphic" in2="BackgroundImageFix" result="shape"/>
<feGaussianBlur stdDeviation="3" result="effect1_foregroundBlur_750:5744"/>
</filter>
<filter id="filter9_f_750:5744" x="699.458" y="202.662" width="136.756" height="49.1133" filterUnits="userSpaceOnUse" color-interpolation-filters="sRGB">
<feFlood flood-opacity="0" result="BackgroundImageFix"/>
<feBlend mode="normal" in="SourceGraphic" in2="BackgroundImageFix" result="shape"/>
<feGaussianBlur stdDeviation="3" result="effect1_foregroundBlur_750:5744"/>
</filter>
<filter id="filter10_f_750:5744" x="808.188" y="224.919" width="162.225" height="105.813" filterUnits="userSpaceOnUse" color-interpolation-filters="sRGB">
<feFlood flood-opacity="0" result="BackgroundImageFix"/>
<feBlend mode="normal" in="SourceGraphic" in2="BackgroundImageFix" result="shape"/>
<feGaussianBlur stdDeviation="5" result="effect1_foregroundBlur_750:5744"/>
</filter>
<filter id="filter11_f_750:5744" x="808.188" y="224.919" width="162.225" height="105.813" filterUnits="userSpaceOnUse" color-interpolation-filters="sRGB">
<feFlood flood-opacity="0" result="BackgroundImageFix"/>
<feBlend mode="normal" in="SourceGraphic" in2="BackgroundImageFix" result="shape"/>
<feGaussianBlur stdDeviation="5" result="effect1_foregroundBlur_750:5744"/>
</filter>
<filter id="filter12_f_750:5744" x="360.15" y="458.698" width="181.756" height="75.621" filterUnits="userSpaceOnUse" color-interpolation-filters="sRGB">
<feFlood flood-opacity="0" result="BackgroundImageFix"/>
<feBlend mode="normal" in="SourceGraphic" in2="BackgroundImageFix" result="shape"/>
<feGaussianBlur stdDeviation="3" result="effect1_foregroundBlur_750:5744"/>
</filter>
<filter id="filter13_f_750:5744" x="364.689" y="459.591" width="177.217" height="74.738" filterUnits="userSpaceOnUse" color-interpolation-filters="sRGB">
<feFlood flood-opacity="0" result="BackgroundImageFix"/>
<feBlend mode="normal" in="SourceGraphic" in2="BackgroundImageFix" result="shape"/>
<feGaussianBlur stdDeviation="3" result="effect1_foregroundBlur_750:5744"/>
</filter>
<linearGradient id="paint0_linear_750:5744" x1="839" y1="507.5" x2="1015.5" y2="404" gradientUnits="userSpaceOnUse">
<stop stop-color="#3AD85D"/>
<stop offset="1" stop-color="#3AD85D" stop-opacity="0"/>
</linearGradient>
<linearGradient id="paint1_linear_750:5744" x1="490" y1="312" x2="335" y2="320" gradientUnits="userSpaceOnUse">
<stop stop-color="#3AD85D"/>
<stop offset="0.969931" stop-color="#3AD85D" stop-opacity="0"/>
</linearGradient>
<linearGradient id="paint2_linear_750:5744" x1="493" y1="600" x2="499.321" y2="402.475" gradientUnits="userSpaceOnUse">
<stop stop-color="#3BC561"/>
<stop offset="1" stop-color="#39D063" stop-opacity="0"/>
</linearGradient>
<linearGradient id="paint3_linear_750:5744" x1="17.0965" y1="1.51355" x2="22.9938" y2="34.8112" gradientUnits="userSpaceOnUse">
<stop stop-color="white" stop-opacity="0.4"/>
<stop offset="0.317377" stop-color="white" stop-opacity="0.26"/>
<stop offset="0.866865" stop-color="#FDFDFD" stop-opacity="0.18"/>
</linearGradient>
<linearGradient id="paint4_linear_750:5744" x1="17.0965" y1="1.51355" x2="22.9938" y2="34.8112" gradientUnits="userSpaceOnUse">
<stop stop-color="white" stop-opacity="0.4"/>
<stop offset="0.317377" stop-color="white" stop-opacity="0.26"/>
<stop offset="0.866865" stop-color="#FDFDFD" stop-opacity="0.18"/>
</linearGradient>
<linearGradient id="paint5_linear_750:5744" x1="324.5" y1="187.5" x2="333.5" y2="27" gradientUnits="userSpaceOnUse">
<stop stop-color="#3DCD65"/>
<stop offset="1" stop-color="#38D063" stop-opacity="0"/>
</linearGradient>
<linearGradient id="paint6_linear_750:5744" x1="316.88" y1="33.1469" x2="339.886" y2="70.2836" gradientUnits="userSpaceOnUse">
<stop stop-color="white" stop-opacity="0.4"/>
<stop offset="0.317377" stop-color="white" stop-opacity="0.26"/>
<stop offset="0.866865" stop-color="#FDFDFD" stop-opacity="0.04"/>
</linearGradient>
<linearGradient id="paint7_linear_750:5744" x1="856.865" y1="472.178" x2="879.872" y2="509.315" gradientUnits="userSpaceOnUse">
<stop stop-color="white" stop-opacity="0.4"/>
<stop offset="0.317377" stop-color="white" stop-opacity="0.26"/>
<stop offset="0.866865" stop-color="#FDFDFD" stop-opacity="0.04"/>
</linearGradient>
<linearGradient id="paint8_linear_750:5744" x1="158.537" y1="369.876" x2="165.473" y2="176.933" gradientUnits="userSpaceOnUse">
<stop stop-color="#3BC561"/>
<stop offset="1" stop-color="#39D063" stop-opacity="0"/>
</linearGradient>
<linearGradient id="paint9_linear_750:5744" x1="294.362" y1="187.017" x2="159" y2="286.5" gradientUnits="userSpaceOnUse">
<stop stop-color="#38D062"/>
<stop offset="0.894984" stop-color="#38D062" stop-opacity="0"/>
</linearGradient>
<linearGradient id="paint10_linear_750:5744" x1="174.365" y1="282.848" x2="95.3132" y2="352.68" gradientUnits="userSpaceOnUse">
<stop stop-color="white" stop-opacity="0.15"/>
<stop offset="0.159348" stop-color="white" stop-opacity="0.17"/>
<stop offset="0.297226" stop-color="#FEFEFE" stop-opacity="0.262485"/>
<stop offset="0.585455" stop-color="#FDFDFD" stop-opacity="0.33"/>
<stop offset="1" stop-color="white" stop-opacity="0"/>
</linearGradient>
<linearGradient id="paint11_linear_750:5744" x1="174.366" y1="282.848" x2="95.314" y2="352.68" gradientUnits="userSpaceOnUse">
<stop stop-color="white" stop-opacity="0.15"/>
<stop offset="0.238181" stop-color="white" stop-opacity="0.17"/>
<stop offset="0.449056" stop-color="#FEFEFE" stop-opacity="0.262485"/>
<stop offset="0.66836" stop-color="#FDFDFD" stop-opacity="0.33"/>
<stop offset="1" stop-color="white" stop-opacity="0"/>
</linearGradient>
<linearGradient id="paint12_linear_750:5744" x1="174.366" y1="282.848" x2="95.3141" y2="352.68" gradientUnits="userSpaceOnUse">
<stop stop-color="white" stop-opacity="0.15"/>
<stop offset="0.238181" stop-color="white" stop-opacity="0.17"/>
<stop offset="0.449056" stop-color="#FEFEFE" stop-opacity="0.262485"/>
<stop offset="0.66836" stop-color="#FDFDFD" stop-opacity="0.33"/>
<stop offset="1" stop-color="white" stop-opacity="0"/>
</linearGradient>
<linearGradient id="paint13_linear_750:5744" x1="801.946" y1="225.566" x2="735.735" y2="184.856" gradientUnits="userSpaceOnUse">
<stop stop-color="white" stop-opacity="0.15"/>
<stop offset="0.159348" stop-color="white" stop-opacity="0.17"/>
<stop offset="0.297226" stop-color="#FEFEFE" stop-opacity="0.262485"/>
<stop offset="0.585455" stop-color="#FDFDFD" stop-opacity="0.33"/>
<stop offset="1" stop-color="white" stop-opacity="0"/>
</linearGradient>
<linearGradient id="paint14_linear_750:5744" x1="801.945" y1="225.565" x2="735.734" y2="184.855" gradientUnits="userSpaceOnUse">
<stop stop-color="white" stop-opacity="0.15"/>
<stop offset="0.238181" stop-color="white" stop-opacity="0.17"/>
<stop offset="0.449056" stop-color="#FEFEFE" stop-opacity="0.262485"/>
<stop offset="0.66836" stop-color="#FDFDFD" stop-opacity="0.33"/>
<stop offset="1" stop-color="white" stop-opacity="0"/>
</linearGradient>
<linearGradient id="paint15_linear_750:5744" x1="801.944" y1="225.565" x2="735.732" y2="184.855" gradientUnits="userSpaceOnUse">
<stop stop-color="white" stop-opacity="0.15"/>
<stop offset="0.238181" stop-color="white" stop-opacity="0.17"/>
<stop offset="0.449056" stop-color="#FEFEFE" stop-opacity="0.262485"/>
<stop offset="0.66836" stop-color="#FDFDFD" stop-opacity="0.33"/>
<stop offset="1" stop-color="white" stop-opacity="0"/>
</linearGradient>
<linearGradient id="paint16_linear_750:5744" x1="17.3276" y1="1.55258" x2="23.4458" y2="35.6837" gradientUnits="userSpaceOnUse">
<stop stop-color="white" stop-opacity="0.4"/>
<stop offset="0.317377" stop-color="white" stop-opacity="0.26"/>
<stop offset="0.866865" stop-color="#FDFDFD" stop-opacity="0.18"/>
</linearGradient>
<linearGradient id="paint17_linear_750:5744" x1="17.3276" y1="1.55258" x2="23.4458" y2="35.6837" gradientUnits="userSpaceOnUse">
<stop stop-color="white" stop-opacity="0.4"/>
<stop offset="0.317377" stop-color="white" stop-opacity="0.26"/>
<stop offset="0.866865" stop-color="#FDFDFD" stop-opacity="0.18"/>
</linearGradient>
<linearGradient id="paint18_linear_750:5744" x1="296.497" y1="425.688" x2="497.783" y2="558.43" gradientUnits="userSpaceOnUse">
<stop stop-color="white" stop-opacity="0.15"/>
<stop offset="0.317377" stop-color="white" stop-opacity="0.26"/>
<stop offset="0.866865" stop-color="#FDFDFD" stop-opacity="0.28"/>
<stop offset="1" stop-color="white" stop-opacity="0"/>
</linearGradient>
<linearGradient id="paint19_linear_750:5744" x1="296.496" y1="425.687" x2="497.782" y2="558.429" gradientUnits="userSpaceOnUse">
<stop stop-color="white" stop-opacity="0.15"/>
<stop offset="0.317377" stop-color="white" stop-opacity="0.26"/>
<stop offset="0.866865" stop-color="#FDFDFD" stop-opacity="0.28"/>
<stop offset="1" stop-color="white" stop-opacity="0"/>
</linearGradient>
</defs>
</svg>
